<svg width="1436" height="663" viewBox="0 0 1436 663" fill="none" xmlns="http://www.w3.org/2000/svg">
<path d="M280 59.8798C280 45.2002 291.641 33.3 306 33.3H1129C1143.36 33.3 1155 45.2002 1155 59.8798V623.3C1155 626.614 1152.31 629.3 1149 629.3H286C282.686 629.3 280 626.614 280 623.3V59.8798Z" fill="black"/>
<circle cx="718" cy="55.3" r="2.9" fill="#0F0F0F" stroke="#151515" stroke-width="0.2"/>
<circle cx="717.7" cy="56" r="0.7" fill="#16181E"/>
<circle cx="717.7" cy="55" r="0.7" fill="#0A0B0D"/>
<circle opacity="0.6" cx="718" cy="55.3" r="1" fill="#1F2531"/>
<g clip-path="url(#clip0_60_4622)">
<rect width="811" height="511" transform="translate(313 78.3)" fill="black"/>
<rect x="313" y="78.3" width="811" height="511" fill="#300A24"/>
<g clip-path="url(#clip1_60_4622)">
<rect width="811" height="24" transform="translate(314 102)" fill="white"/>
<g clip-path="url(#clip2_60_4622)">
<g filter="url(#filter0_b_60_4622)">
<rect x="314" y="102" width="811" height="24" fill="#4F4F4F" fill-opacity="0.2"/>
</g>
<g style="mix-blend-mode:color-burn" opacity="0.2">
<rect x="314" y="102" width="811" height="24" fill="#8F8F8F"/>
</g>
</g>
<path fill-rule="evenodd" clip-rule="evenodd" d="M333 120C336.314 120 339 117.314 339 114C339 110.686 336.314 108 333 108C329.686 108 327 110.686 327 114C327 117.314 329.686 120 333 120Z" fill="#FF5E57"/>
<path d="M338.75 114C338.75 117.176 336.176 119.75 333 119.75C329.824 119.75 327.25 117.176 327.25 114C327.25 110.824 329.824 108.25 333 108.25C336.176 108.25 338.75 110.824 338.75 114Z" stroke="black" stroke-opacity="0.12" stroke-width="0.5"/>
<path fill-rule="evenodd" clip-rule="evenodd" d="M353 120C356.314 120 359 117.314 359 114C359 110.686 356.314 108 353 108C349.686 108 347 110.686 347 114C347 117.314 349.686 120 353 120Z" fill="#FFBB2E"/>
<path d="M358.75 114C358.75 117.176 356.176 119.75 353 119.75C349.824 119.75 347.25 117.176 347.25 114C347.25 110.824 349.824 108.25 353 108.25C356.176 108.25 358.75 110.824 358.75 114Z" stroke="black" stroke-opacity="0.12" stroke-width="0.5"/>
<path fill-rule="evenodd" clip-rule="evenodd" d="M373 120C376.314 120 379 117.314 379 114C379 110.686 376.314 108 373 108C369.686 108 367 110.686 367 114C367 117.314 369.686 120 373 120Z" fill="#38C149"/>
<path d="M378.75 114C378.75 117.176 376.176 119.75 373 119.75C369.824 119.75 367.25 117.176 367.25 114C367.25 110.824 369.824 108.25 373 108.25C376.176 108.25 378.75 110.824 378.75 114Z" stroke="black" stroke-opacity="0.12" stroke-width="0.5"/>
</g>
<path d="M322.516 146H320.633V136.734C320.633 136.104 320.75 135.576 320.984 135.148C321.224 134.716 321.565 134.391 322.008 134.172C322.451 133.948 322.974 133.836 323.578 133.836C323.766 133.836 323.951 133.849 324.133 133.875C324.315 133.896 324.492 133.93 324.664 133.977L324.617 135.43C324.513 135.404 324.398 135.385 324.273 135.375C324.154 135.365 324.023 135.359 323.883 135.359C323.596 135.359 323.349 135.414 323.141 135.523C322.938 135.628 322.781 135.781 322.672 135.984C322.568 136.188 322.516 136.438 322.516 136.734V146ZM324.258 137.547V138.922H319.336V137.547H324.258ZM329.164 146.156C328.539 146.156 327.974 146.055 327.469 145.852C326.969 145.643 326.542 145.354 326.188 144.984C325.839 144.615 325.57 144.18 325.383 143.68C325.195 143.18 325.102 142.641 325.102 142.062V141.75C325.102 141.089 325.198 140.49 325.391 139.953C325.583 139.417 325.852 138.958 326.195 138.578C326.539 138.193 326.945 137.898 327.414 137.695C327.883 137.492 328.391 137.391 328.938 137.391C329.542 137.391 330.07 137.492 330.523 137.695C330.977 137.898 331.352 138.185 331.648 138.555C331.951 138.919 332.174 139.354 332.32 139.859C332.471 140.365 332.547 140.922 332.547 141.531V142.336H326.016V140.984H330.688V140.836C330.677 140.497 330.609 140.18 330.484 139.883C330.365 139.586 330.18 139.346 329.93 139.164C329.68 138.982 329.346 138.891 328.93 138.891C328.617 138.891 328.339 138.958 328.094 139.094C327.854 139.224 327.654 139.414 327.492 139.664C327.331 139.914 327.206 140.216 327.117 140.57C327.034 140.919 326.992 141.312 326.992 141.75V142.062C326.992 142.432 327.042 142.776 327.141 143.094C327.245 143.406 327.396 143.68 327.594 143.914C327.792 144.148 328.031 144.333 328.312 144.469C328.594 144.599 328.914 144.664 329.273 144.664C329.727 144.664 330.13 144.573 330.484 144.391C330.839 144.208 331.146 143.951 331.406 143.617L332.398 144.578C332.216 144.844 331.979 145.099 331.688 145.344C331.396 145.583 331.039 145.779 330.617 145.93C330.201 146.081 329.716 146.156 329.164 146.156ZM335.906 139.156V146H334.023V137.547H335.82L335.906 139.156ZM338.492 137.492L338.477 139.242C338.362 139.221 338.237 139.206 338.102 139.195C337.971 139.185 337.841 139.18 337.711 139.18C337.388 139.18 337.104 139.227 336.859 139.32C336.615 139.409 336.409 139.539 336.242 139.711C336.081 139.878 335.956 140.081 335.867 140.32C335.779 140.56 335.727 140.828 335.711 141.125L335.281 141.156C335.281 140.625 335.333 140.133 335.438 139.68C335.542 139.227 335.698 138.828 335.906 138.484C336.12 138.141 336.385 137.872 336.703 137.68C337.026 137.487 337.398 137.391 337.82 137.391C337.935 137.391 338.057 137.401 338.188 137.422C338.323 137.443 338.424 137.466 338.492 137.492ZM341.539 139.352V146H339.656V137.547H341.43L341.539 139.352ZM341.203 141.461L340.594 141.453C340.599 140.854 340.682 140.305 340.844 139.805C341.01 139.305 341.24 138.875 341.531 138.516C341.828 138.156 342.182 137.88 342.594 137.688C343.005 137.49 343.464 137.391 343.969 137.391C344.375 137.391 344.742 137.448 345.07 137.562C345.404 137.672 345.688 137.852 345.922 138.102C346.161 138.352 346.344 138.677 346.469 139.078C346.594 139.474 346.656 139.961 346.656 140.539V146H344.766V140.531C344.766 140.125 344.706 139.805 344.586 139.57C344.471 139.331 344.302 139.161 344.078 139.062C343.859 138.958 343.586 138.906 343.258 138.906C342.935 138.906 342.646 138.974 342.391 139.109C342.135 139.245 341.919 139.43 341.742 139.664C341.57 139.898 341.438 140.169 341.344 140.477C341.25 140.784 341.203 141.112 341.203 141.461ZM353.344 144.305V140.273C353.344 139.971 353.289 139.711 353.18 139.492C353.07 139.273 352.904 139.104 352.68 138.984C352.461 138.865 352.185 138.805 351.852 138.805C351.544 138.805 351.279 138.857 351.055 138.961C350.831 139.065 350.656 139.206 350.531 139.383C350.406 139.56 350.344 139.76 350.344 139.984H348.469C348.469 139.651 348.549 139.328 348.711 139.016C348.872 138.703 349.107 138.424 349.414 138.18C349.721 137.935 350.089 137.742 350.516 137.602C350.943 137.461 351.422 137.391 351.953 137.391C352.589 137.391 353.151 137.497 353.641 137.711C354.135 137.924 354.523 138.247 354.805 138.68C355.091 139.107 355.234 139.643 355.234 140.289V144.047C355.234 144.432 355.26 144.779 355.312 145.086C355.37 145.388 355.451 145.651 355.555 145.875V146H353.625C353.536 145.797 353.466 145.539 353.414 145.227C353.367 144.909 353.344 144.602 353.344 144.305ZM353.617 140.859L353.633 142.023H352.281C351.932 142.023 351.625 142.057 351.359 142.125C351.094 142.188 350.872 142.281 350.695 142.406C350.518 142.531 350.385 142.682 350.297 142.859C350.208 143.036 350.164 143.237 350.164 143.461C350.164 143.685 350.216 143.891 350.32 144.078C350.424 144.26 350.576 144.404 350.773 144.508C350.977 144.612 351.221 144.664 351.508 144.664C351.893 144.664 352.229 144.586 352.516 144.43C352.807 144.268 353.036 144.073 353.203 143.844C353.37 143.609 353.458 143.388 353.469 143.18L354.078 144.016C354.016 144.229 353.909 144.458 353.758 144.703C353.607 144.948 353.409 145.182 353.164 145.406C352.924 145.625 352.635 145.805 352.297 145.945C351.964 146.086 351.578 146.156 351.141 146.156C350.589 146.156 350.096 146.047 349.664 145.828C349.232 145.604 348.893 145.305 348.648 144.93C348.404 144.549 348.281 144.12 348.281 143.641C348.281 143.193 348.365 142.797 348.531 142.453C348.703 142.104 348.953 141.812 349.281 141.578C349.615 141.344 350.021 141.167 350.5 141.047C350.979 140.922 351.526 140.859 352.141 140.859H353.617ZM359.07 139.352V146H357.188V137.547H358.961L359.07 139.352ZM358.734 141.461L358.125 141.453C358.13 140.854 358.214 140.305 358.375 139.805C358.542 139.305 358.771 138.875 359.062 138.516C359.359 138.156 359.714 137.88 360.125 137.688C360.536 137.49 360.995 137.391 361.5 137.391C361.906 137.391 362.273 137.448 362.602 137.562C362.935 137.672 363.219 137.852 363.453 138.102C363.693 138.352 363.875 138.677 364 139.078C364.125 139.474 364.188 139.961 364.188 140.539V146H362.297V140.531C362.297 140.125 362.237 139.805 362.117 139.57C362.003 139.331 361.833 139.161 361.609 139.062C361.391 138.958 361.117 138.906 360.789 138.906C360.466 138.906 360.177 138.974 359.922 139.109C359.667 139.245 359.451 139.43 359.273 139.664C359.102 139.898 358.969 140.169 358.875 140.477C358.781 140.784 358.734 141.112 358.734 141.461ZM371.266 144.25V134H373.156V146H371.445L371.266 144.25ZM365.766 141.867V141.703C365.766 141.062 365.841 140.479 365.992 139.953C366.143 139.422 366.362 138.966 366.648 138.586C366.935 138.201 367.284 137.906 367.695 137.703C368.107 137.495 368.57 137.391 369.086 137.391C369.596 137.391 370.044 137.49 370.43 137.688C370.815 137.885 371.143 138.169 371.414 138.539C371.685 138.904 371.901 139.341 372.062 139.852C372.224 140.357 372.339 140.919 372.406 141.539V142.062C372.339 142.667 372.224 143.219 372.062 143.719C371.901 144.219 371.685 144.651 371.414 145.016C371.143 145.38 370.812 145.661 370.422 145.859C370.036 146.057 369.586 146.156 369.07 146.156C368.56 146.156 368.099 146.049 367.688 145.836C367.281 145.622 366.935 145.323 366.648 144.938C366.362 144.552 366.143 144.099 365.992 143.578C365.841 143.052 365.766 142.482 365.766 141.867ZM367.648 141.703V141.867C367.648 142.253 367.682 142.612 367.75 142.945C367.823 143.279 367.935 143.573 368.086 143.828C368.237 144.078 368.432 144.276 368.672 144.422C368.917 144.562 369.208 144.633 369.547 144.633C369.974 144.633 370.326 144.539 370.602 144.352C370.878 144.164 371.094 143.911 371.25 143.594C371.411 143.271 371.521 142.911 371.578 142.516V141.102C371.547 140.794 371.482 140.508 371.383 140.242C371.289 139.977 371.161 139.745 371 139.547C370.839 139.344 370.638 139.188 370.398 139.078C370.164 138.964 369.885 138.906 369.562 138.906C369.219 138.906 368.927 138.979 368.688 139.125C368.448 139.271 368.25 139.471 368.094 139.727C367.943 139.982 367.831 140.279 367.758 140.617C367.685 140.956 367.648 141.318 367.648 141.703ZM374.766 141.867V141.688C374.766 141.078 374.854 140.513 375.031 139.992C375.208 139.466 375.464 139.01 375.797 138.625C376.135 138.234 376.547 137.932 377.031 137.719C377.521 137.5 378.073 137.391 378.688 137.391C379.307 137.391 379.859 137.5 380.344 137.719C380.833 137.932 381.247 138.234 381.586 138.625C381.924 139.01 382.182 139.466 382.359 139.992C382.536 140.513 382.625 141.078 382.625 141.688V141.867C382.625 142.477 382.536 143.042 382.359 143.562C382.182 144.083 381.924 144.539 381.586 144.93C381.247 145.315 380.836 145.617 380.352 145.836C379.867 146.049 379.318 146.156 378.703 146.156C378.083 146.156 377.529 146.049 377.039 145.836C376.555 145.617 376.143 145.315 375.805 144.93C375.466 144.539 375.208 144.083 375.031 143.562C374.854 143.042 374.766 142.477 374.766 141.867ZM376.648 141.688V141.867C376.648 142.247 376.688 142.607 376.766 142.945C376.844 143.284 376.966 143.581 377.133 143.836C377.299 144.091 377.513 144.292 377.773 144.438C378.034 144.583 378.344 144.656 378.703 144.656C379.052 144.656 379.354 144.583 379.609 144.438C379.87 144.292 380.083 144.091 380.25 143.836C380.417 143.581 380.539 143.284 380.617 142.945C380.701 142.607 380.742 142.247 380.742 141.867V141.688C380.742 141.312 380.701 140.958 380.617 140.625C380.539 140.286 380.414 139.987 380.242 139.727C380.076 139.466 379.862 139.263 379.602 139.117C379.346 138.966 379.042 138.891 378.688 138.891C378.333 138.891 378.026 138.966 377.766 139.117C377.51 139.263 377.299 139.466 377.133 139.727C376.966 139.987 376.844 140.286 376.766 140.625C376.688 140.958 376.648 141.312 376.648 141.688ZM396.852 141.938C396.831 142.443 396.755 142.945 396.625 143.445C396.495 143.945 396.297 144.401 396.031 144.812C395.771 145.224 395.435 145.552 395.023 145.797C394.612 146.042 394.117 146.164 393.539 146.164C393.19 146.164 392.88 146.104 392.609 145.984C392.339 145.859 392.112 145.682 391.93 145.453C391.753 145.224 391.625 144.948 391.547 144.625C391.469 144.297 391.448 143.932 391.484 143.531L391.883 139.102H393.25L392.859 143.531C392.828 143.849 392.833 144.109 392.875 144.312C392.922 144.516 392.992 144.672 393.086 144.781C393.18 144.891 393.286 144.966 393.406 145.008C393.526 145.049 393.646 145.07 393.766 145.07C394.047 145.07 394.299 144.992 394.523 144.836C394.747 144.674 394.938 144.453 395.094 144.172C395.255 143.885 395.38 143.555 395.469 143.18C395.562 142.805 395.617 142.398 395.633 141.961C395.669 141.232 395.635 140.56 395.531 139.945C395.427 139.326 395.25 138.773 395 138.289C394.755 137.805 394.435 137.396 394.039 137.062C393.648 136.724 393.18 136.466 392.633 136.289C392.086 136.112 391.461 136.023 390.758 136.023C390.112 136.023 389.516 136.122 388.969 136.32C388.422 136.518 387.932 136.805 387.5 137.18C387.068 137.549 386.695 137.995 386.383 138.516C386.076 139.031 385.833 139.612 385.656 140.258C385.484 140.898 385.383 141.586 385.352 142.32C385.315 143.091 385.354 143.794 385.469 144.43C385.589 145.065 385.781 145.628 386.047 146.117C386.312 146.607 386.646 147.018 387.047 147.352C387.453 147.69 387.922 147.945 388.453 148.117C388.99 148.289 389.583 148.375 390.234 148.375C390.693 148.375 391.156 148.323 391.625 148.219C392.099 148.115 392.497 147.977 392.82 147.805L393.117 148.844C392.753 149.078 392.297 149.253 391.75 149.367C391.203 149.482 390.688 149.539 390.203 149.539C389.396 149.539 388.656 149.435 387.984 149.227C387.318 149.018 386.727 148.711 386.211 148.305C385.701 147.904 385.276 147.411 384.938 146.828C384.599 146.245 384.349 145.576 384.188 144.82C384.026 144.065 383.964 143.232 384 142.32C384.036 141.466 384.167 140.664 384.391 139.914C384.615 139.159 384.922 138.474 385.312 137.859C385.708 137.245 386.177 136.716 386.719 136.273C387.266 135.826 387.88 135.482 388.562 135.242C389.245 135.003 389.987 134.883 390.789 134.883C391.602 134.883 392.336 134.99 392.992 135.203C393.648 135.417 394.224 135.727 394.719 136.133C395.219 136.539 395.633 137.031 395.961 137.609C396.289 138.188 396.529 138.841 396.68 139.57C396.831 140.294 396.888 141.083 396.852 141.938ZM388.906 142.68C388.87 143.034 388.867 143.349 388.898 143.625C388.935 143.901 389 144.133 389.094 144.32C389.193 144.508 389.32 144.651 389.477 144.75C389.633 144.849 389.815 144.898 390.023 144.898C390.154 144.898 390.292 144.867 390.438 144.805C390.589 144.737 390.737 144.63 390.883 144.484C391.029 144.339 391.167 144.146 391.297 143.906C391.427 143.661 391.536 143.359 391.625 143L392.219 143.68C392.099 144.086 391.948 144.445 391.766 144.758C391.583 145.065 391.378 145.323 391.148 145.531C390.919 145.734 390.672 145.891 390.406 146C390.141 146.104 389.865 146.156 389.578 146.156C389.198 146.156 388.859 146.073 388.562 145.906C388.271 145.74 388.031 145.505 387.844 145.203C387.656 144.896 387.523 144.531 387.445 144.109C387.367 143.682 387.352 143.206 387.398 142.68C387.451 142.143 387.549 141.646 387.695 141.188C387.846 140.729 388.031 140.32 388.25 139.961C388.474 139.602 388.727 139.297 389.008 139.047C389.289 138.792 389.591 138.599 389.914 138.469C390.242 138.333 390.578 138.266 390.922 138.266C391.51 138.266 391.971 138.349 392.305 138.516C392.638 138.682 392.953 138.878 393.25 139.102L392.516 140.039C392.365 139.898 392.167 139.766 391.922 139.641C391.682 139.516 391.396 139.453 391.062 139.453C390.766 139.453 390.495 139.521 390.25 139.656C390.01 139.792 389.799 139.997 389.617 140.273C389.435 140.544 389.281 140.88 389.156 141.281C389.036 141.682 388.953 142.148 388.906 142.68ZM400.578 137.547V146H398.688V137.547H400.578ZM398.562 135.328C398.562 135.042 398.656 134.805 398.844 134.617C399.036 134.424 399.302 134.328 399.641 134.328C399.974 134.328 400.237 134.424 400.43 134.617C400.622 134.805 400.719 135.042 400.719 135.328C400.719 135.609 400.622 135.844 400.43 136.031C400.237 136.219 399.974 136.312 399.641 136.312C399.302 136.312 399.036 136.219 398.844 136.031C398.656 135.844 398.562 135.609 398.562 135.328ZM402.648 134H404.531V144.195L404.352 146H402.648V134ZM410.047 141.695V141.859C410.047 142.484 409.977 143.06 409.836 143.586C409.701 144.107 409.492 144.56 409.211 144.945C408.935 145.331 408.591 145.63 408.18 145.844C407.773 146.052 407.302 146.156 406.766 146.156C406.24 146.156 405.781 146.057 405.391 145.859C405 145.661 404.672 145.38 404.406 145.016C404.146 144.651 403.935 144.216 403.773 143.711C403.612 143.206 403.497 142.648 403.43 142.039V141.516C403.497 140.901 403.612 140.344 403.773 139.844C403.935 139.339 404.146 138.904 404.406 138.539C404.672 138.169 404.997 137.885 405.383 137.688C405.773 137.49 406.229 137.391 406.75 137.391C407.292 137.391 407.768 137.495 408.18 137.703C408.596 137.911 408.943 138.208 409.219 138.594C409.495 138.974 409.701 139.427 409.836 139.953C409.977 140.479 410.047 141.06 410.047 141.695ZM408.164 141.859V141.695C408.164 141.315 408.133 140.958 408.07 140.625C408.008 140.286 407.904 139.99 407.758 139.734C407.617 139.479 407.424 139.279 407.18 139.133C406.94 138.982 406.641 138.906 406.281 138.906C405.948 138.906 405.661 138.964 405.422 139.078C405.182 139.193 404.982 139.349 404.82 139.547C404.659 139.745 404.531 139.974 404.438 140.234C404.349 140.495 404.289 140.776 404.258 141.078V142.492C404.305 142.883 404.404 143.242 404.555 143.57C404.711 143.893 404.93 144.154 405.211 144.352C405.492 144.544 405.854 144.641 406.297 144.641C406.646 144.641 406.94 144.57 407.18 144.43C407.419 144.289 407.609 144.094 407.75 143.844C407.896 143.589 408 143.292 408.062 142.953C408.13 142.615 408.164 142.25 408.164 141.859ZM416.406 144.305V140.273C416.406 139.971 416.352 139.711 416.242 139.492C416.133 139.273 415.966 139.104 415.742 138.984C415.523 138.865 415.247 138.805 414.914 138.805C414.607 138.805 414.341 138.857 414.117 138.961C413.893 139.065 413.719 139.206 413.594 139.383C413.469 139.56 413.406 139.76 413.406 139.984H411.531C411.531 139.651 411.612 139.328 411.773 139.016C411.935 138.703 412.169 138.424 412.477 138.18C412.784 137.935 413.151 137.742 413.578 137.602C414.005 137.461 414.484 137.391 415.016 137.391C415.651 137.391 416.214 137.497 416.703 137.711C417.198 137.924 417.586 138.247 417.867 138.68C418.154 139.107 418.297 139.643 418.297 140.289V144.047C418.297 144.432 418.323 144.779 418.375 145.086C418.432 145.388 418.513 145.651 418.617 145.875V146H416.688C416.599 145.797 416.529 145.539 416.477 145.227C416.43 144.909 416.406 144.602 416.406 144.305ZM416.68 140.859L416.695 142.023H415.344C414.995 142.023 414.688 142.057 414.422 142.125C414.156 142.188 413.935 142.281 413.758 142.406C413.581 142.531 413.448 142.682 413.359 142.859C413.271 143.036 413.227 143.237 413.227 143.461C413.227 143.685 413.279 143.891 413.383 144.078C413.487 144.26 413.638 144.404 413.836 144.508C414.039 144.612 414.284 144.664 414.57 144.664C414.956 144.664 415.292 144.586 415.578 144.43C415.87 144.268 416.099 144.073 416.266 143.844C416.432 143.609 416.521 143.388 416.531 143.18L417.141 144.016C417.078 144.229 416.971 144.458 416.82 144.703C416.669 144.948 416.471 145.182 416.227 145.406C415.987 145.625 415.698 145.805 415.359 145.945C415.026 146.086 414.641 146.156 414.203 146.156C413.651 146.156 413.159 146.047 412.727 145.828C412.294 145.604 411.956 145.305 411.711 144.93C411.466 144.549 411.344 144.12 411.344 143.641C411.344 143.193 411.427 142.797 411.594 142.453C411.766 142.104 412.016 141.812 412.344 141.578C412.677 141.344 413.083 141.167 413.562 141.047C414.042 140.922 414.589 140.859 415.203 140.859H416.68ZM422.133 139.352V146H420.25V137.547H422.023L422.133 139.352ZM421.797 141.461L421.188 141.453C421.193 140.854 421.276 140.305 421.438 139.805C421.604 139.305 421.833 138.875 422.125 138.516C422.422 138.156 422.776 137.88 423.188 137.688C423.599 137.49 424.057 137.391 424.562 137.391C424.969 137.391 425.336 137.448 425.664 137.562C425.997 137.672 426.281 137.852 426.516 138.102C426.755 138.352 426.938 138.677 427.062 139.078C427.188 139.474 427.25 139.961 427.25 140.539V146H425.359V140.531C425.359 140.125 425.299 139.805 425.18 139.57C425.065 139.331 424.896 139.161 424.672 139.062C424.453 138.958 424.18 138.906 423.852 138.906C423.529 138.906 423.24 138.974 422.984 139.109C422.729 139.245 422.513 139.43 422.336 139.664C422.164 139.898 422.031 140.169 421.938 140.477C421.844 140.784 421.797 141.112 421.797 141.461ZM432.898 146.156C432.273 146.156 431.708 146.055 431.203 145.852C430.703 145.643 430.276 145.354 429.922 144.984C429.573 144.615 429.305 144.18 429.117 143.68C428.93 143.18 428.836 142.641 428.836 142.062V141.75C428.836 141.089 428.932 140.49 429.125 139.953C429.318 139.417 429.586 138.958 429.93 138.578C430.273 138.193 430.68 137.898 431.148 137.695C431.617 137.492 432.125 137.391 432.672 137.391C433.276 137.391 433.805 137.492 434.258 137.695C434.711 137.898 435.086 138.185 435.383 138.555C435.685 138.919 435.909 139.354 436.055 139.859C436.206 140.365 436.281 140.922 436.281 141.531V142.336H429.75V140.984H434.422V140.836C434.411 140.497 434.344 140.18 434.219 139.883C434.099 139.586 433.914 139.346 433.664 139.164C433.414 138.982 433.081 138.891 432.664 138.891C432.352 138.891 432.073 138.958 431.828 139.094C431.589 139.224 431.388 139.414 431.227 139.664C431.065 139.914 430.94 140.216 430.852 140.57C430.768 140.919 430.727 141.312 430.727 141.75V142.062C430.727 142.432 430.776 142.776 430.875 143.094C430.979 143.406 431.13 143.68 431.328 143.914C431.526 144.148 431.766 144.333 432.047 144.469C432.328 144.599 432.648 144.664 433.008 144.664C433.461 144.664 433.865 144.573 434.219 144.391C434.573 144.208 434.88 143.951 435.141 143.617L436.133 144.578C435.951 144.844 435.714 145.099 435.422 145.344C435.13 145.583 434.773 145.779 434.352 145.93C433.935 146.081 433.451 146.156 432.898 146.156ZM444.289 144.5V146H437.992V144.5H444.289ZM444.117 138.719L438.633 146H437.414V144.789L442.867 137.547H444.117V138.719ZM443.391 137.547V139.047H437.508V137.547H443.391ZM445.82 145.062C445.82 144.771 445.919 144.526 446.117 144.328C446.315 144.125 446.583 144.023 446.922 144.023C447.266 144.023 447.534 144.125 447.727 144.328C447.924 144.526 448.023 144.771 448.023 145.062C448.023 145.354 447.924 145.599 447.727 145.797C447.534 145.995 447.266 146.094 446.922 146.094C446.583 146.094 446.315 145.995 446.117 145.797C445.919 145.599 445.82 145.354 445.82 145.062ZM445.828 138.406C445.828 138.115 445.927 137.87 446.125 137.672C446.323 137.469 446.591 137.367 446.93 137.367C447.273 137.367 447.542 137.469 447.734 137.672C447.932 137.87 448.031 138.115 448.031 138.406C448.031 138.698 447.932 138.943 447.734 139.141C447.542 139.339 447.273 139.438 446.93 139.438C446.591 139.438 446.323 139.339 446.125 139.141C445.927 138.943 445.828 138.698 445.828 138.406ZM461.266 139.867L462.711 139.859C462.711 140.307 462.648 140.721 462.523 141.102C462.398 141.477 462.221 141.802 461.992 142.078C461.768 142.354 461.497 142.57 461.18 142.727C460.867 142.878 460.523 142.953 460.148 142.953C459.711 142.953 459.323 142.867 458.984 142.695C458.651 142.518 458.292 142.253 457.906 141.898C457.667 141.669 457.443 141.495 457.234 141.375C457.026 141.25 456.802 141.188 456.562 141.188C456.328 141.188 456.128 141.25 455.961 141.375C455.794 141.495 455.664 141.667 455.57 141.891C455.477 142.115 455.43 142.375 455.43 142.672H453.945C453.945 142.219 454.008 141.807 454.133 141.438C454.258 141.062 454.432 140.742 454.656 140.477C454.885 140.206 455.156 139.997 455.469 139.852C455.781 139.706 456.125 139.633 456.5 139.633C456.938 139.633 457.331 139.724 457.68 139.906C458.034 140.089 458.393 140.349 458.758 140.688C459.008 140.927 459.234 141.107 459.438 141.227C459.641 141.346 459.857 141.406 460.086 141.406C460.32 141.406 460.526 141.341 460.703 141.211C460.88 141.076 461.018 140.891 461.117 140.656C461.216 140.422 461.266 140.159 461.266 139.867ZM469.023 132.805V135.141H467.82V132.805H469.023ZM468.875 145.562V147.656H467.68V145.562H468.875ZM470.055 143.039C470.055 142.737 469.992 142.474 469.867 142.25C469.747 142.021 469.549 141.815 469.273 141.633C468.997 141.445 468.628 141.271 468.164 141.109C467.497 140.875 466.914 140.612 466.414 140.32C465.919 140.023 465.534 139.659 465.258 139.227C464.987 138.789 464.852 138.245 464.852 137.594C464.852 136.953 464.997 136.398 465.289 135.93C465.586 135.461 465.997 135.099 466.523 134.844C467.049 134.589 467.664 134.461 468.367 134.461C468.909 134.461 469.396 134.542 469.828 134.703C470.266 134.865 470.638 135.102 470.945 135.414C471.253 135.727 471.487 136.112 471.648 136.57C471.815 137.023 471.898 137.544 471.898 138.133H470.023C470.023 137.799 469.984 137.503 469.906 137.242C469.833 136.977 469.724 136.753 469.578 136.57C469.432 136.383 469.255 136.24 469.047 136.141C468.844 136.042 468.612 135.992 468.352 135.992C467.982 135.992 467.677 136.062 467.438 136.203C467.198 136.339 467.021 136.526 466.906 136.766C466.797 137.005 466.742 137.279 466.742 137.586C466.742 137.883 466.799 138.143 466.914 138.367C467.029 138.591 467.224 138.794 467.5 138.977C467.781 139.154 468.167 139.333 468.656 139.516C469.328 139.755 469.909 140.023 470.398 140.32C470.893 140.612 471.273 140.974 471.539 141.406C471.81 141.833 471.945 142.372 471.945 143.023C471.945 143.695 471.789 144.266 471.477 144.734C471.169 145.203 470.737 145.56 470.18 145.805C469.628 146.044 468.984 146.164 468.25 146.164C467.786 146.164 467.326 146.104 466.867 145.984C466.414 145.859 466.003 145.656 465.633 145.375C465.263 145.094 464.969 144.721 464.75 144.258C464.531 143.789 464.422 143.216 464.422 142.539H466.312C466.312 142.945 466.367 143.284 466.477 143.555C466.586 143.826 466.734 144.039 466.922 144.195C467.109 144.352 467.318 144.464 467.547 144.531C467.781 144.599 468.016 144.633 468.25 144.633C468.641 144.633 468.969 144.568 469.234 144.438C469.505 144.302 469.708 144.115 469.844 143.875C469.984 143.63 470.055 143.352 470.055 143.039Z" fill="white"/>
<g clip-path="url(#clip3_60_4622)">
<g filter="url(#filter1_b_60_4622)">
<rect x="313" y="78.3" width="811" height="24" fill="#4F4F4F" fill-opacity="0.2"/>
</g>
<g style="mix-blend-mode:color-burn" opacity="0.2">
<rect x="313" y="78.3" width="811" height="24" fill="#8F8F8F"/>
</g>
</g>
<g clip-path="url(#clip4_60_4622)">
<g filter="url(#filter2_d_60_4622)">
<path d="M347.861 84.8549C348.362 84.2566 348.71 83.44 348.71 82.6154C348.71 82.5022 348.702 82.389 348.678 82.3C347.877 82.3324 346.907 82.8337 346.325 83.5128C345.872 84.0302 345.452 84.8549 345.452 85.6795C345.452 85.8089 345.468 85.9302 345.484 85.9706C345.533 85.9787 345.613 85.9948 345.694 85.9948C346.422 85.9948 347.327 85.5098 347.861 84.8549ZM348.435 86.1646C347.222 86.1646 346.244 86.9004 345.613 86.9004C344.942 86.9004 344.069 86.2131 343.018 86.2131C341.021 86.2131 339 87.8625 339 90.9671C339 92.9074 339.744 94.9529 340.674 96.2707C341.466 97.3865 342.161 98.3 343.156 98.3C344.15 98.3 344.587 97.6452 345.807 97.6452C347.061 97.6452 347.336 98.2839 348.435 98.2839C349.518 98.2839 350.238 97.2894 350.917 96.3112C351.685 95.1874 352.001 94.0959 352.017 94.0393C351.952 94.0231 349.874 93.1742 349.874 90.8054C349.874 88.7518 351.507 87.8301 351.596 87.7574C350.529 86.2131 348.888 86.1646 348.435 86.1646Z" fill="white" fill-opacity="0.9"/>
</g>
<g filter="url(#filter3_d_60_4622)">
<path d="M377.213 95.3H379.277V91.4172H383.29V89.7834H379.277V87.1379H383.673V85.4358H377.213V95.3ZM386.05 86.6184C386.666 86.6184 387.171 86.1262 387.171 85.511C387.171 84.8889 386.666 84.3967 386.05 84.3967C385.435 84.3967 384.922 84.8889 384.922 85.511C384.922 86.1262 385.435 86.6184 386.05 86.6184ZM385.046 95.3H387.042V87.7737H385.046V95.3ZM388.701 95.3H390.697V90.9456C390.697 89.927 391.258 89.2639 392.181 89.2639C393.124 89.2639 393.562 89.8245 393.562 90.884V95.3H395.558V90.4329C395.558 88.635 394.655 87.6096 392.981 87.6096C391.907 87.6096 391.162 88.1223 390.821 88.9358H390.697V87.7737H388.701V95.3ZM399.829 95.4163C400.888 95.4163 401.688 94.9446 402.078 94.1311H402.201V95.3H404.197V84.8958H402.201V88.9768H402.078C401.702 88.1565 400.861 87.6506 399.829 87.6506C397.922 87.6506 396.773 89.1067 396.773 91.5266V91.5403C396.773 93.9465 397.949 95.4163 399.829 95.4163ZM400.506 93.762C399.453 93.762 398.804 92.928 398.804 91.5403V91.5266C398.804 90.1526 399.453 89.3049 400.506 89.3049C401.558 89.3049 402.221 90.1526 402.221 91.5334V91.5471C402.221 92.928 401.565 93.762 400.506 93.762ZM409.22 95.4573C411.421 95.4573 412.392 94.1858 412.624 93.2424L412.638 93.1741H410.779L410.758 93.2151C410.621 93.5022 410.136 93.967 409.261 93.967C408.202 93.967 407.538 93.2493 407.518 92.012H412.7V91.3899C412.7 89.1135 411.332 87.6096 409.138 87.6096C406.944 87.6096 405.542 89.1477 405.542 91.5403V91.5471C405.542 93.9602 406.93 95.4573 409.22 95.4573ZM409.172 89.1067C410.04 89.1067 410.663 89.6672 410.786 90.761H407.538C407.662 89.6946 408.304 89.1067 409.172 89.1067ZM413.983 95.3H415.979V91.0891C415.979 90.0227 416.697 89.3733 417.832 89.3733C418.14 89.3733 418.447 89.4211 418.748 89.4895V87.7463C418.55 87.6917 418.27 87.6506 418.003 87.6506C417.025 87.6506 416.342 88.1292 416.103 88.9426H415.979V87.7737H413.983V95.3Z" fill="white" fill-opacity="0.9"/>
</g>
<g filter="url(#filter4_d_60_4622)">
<path d="M439.254 94.8H440.785V90.6711H445.023V89.3792H440.785V86.2551H445.413V84.9358H439.254V94.8ZM447.654 86.05C448.16 86.05 448.584 85.6331 448.584 85.1272C448.584 84.6145 448.16 84.1975 447.654 84.1975C447.141 84.1975 446.724 84.6145 446.724 85.1272C446.724 85.6331 447.141 86.05 447.654 86.05ZM446.909 94.8H448.385V87.3762H446.909V94.8ZM450.264 94.8H451.747V84.4641H450.264V94.8ZM456.722 94.9436C458.623 94.9436 459.648 93.8499 459.894 92.8723L459.908 92.8108L458.479 92.8176L458.452 92.8723C458.274 93.2551 457.707 93.7268 456.757 93.7268C455.533 93.7268 454.754 92.8997 454.726 91.4778H459.99V90.9583C459.99 88.7297 458.719 87.2327 456.647 87.2327C454.576 87.2327 453.236 88.7844 453.236 91.1018V91.1086C453.236 93.4602 454.549 94.9436 456.722 94.9436ZM456.654 88.4495C457.659 88.4495 458.404 89.092 458.52 90.4182H454.747C454.877 89.1399 455.642 88.4495 456.654 88.4495Z" fill="white" fill-opacity="0.9"/>
</g>
<g filter="url(#filter5_d_60_4622)">
<path d="M480.254 94.8H486.516V93.4807H481.785V90.4114H486.263V89.1399H481.785V86.2551H486.516V84.9358H480.254V94.8ZM490.917 94.9231C491.956 94.9231 492.769 94.4446 493.2 93.6311H493.316V94.8H494.793V84.4641H493.316V88.552H493.2C492.803 87.7522 491.935 87.2463 490.917 87.2463C489.03 87.2463 487.84 88.7297 487.84 91.0813V91.095C487.84 93.426 489.05 94.9231 490.917 94.9231ZM491.34 93.6584C490.096 93.6584 489.351 92.6877 489.351 91.095V91.0813C489.351 89.4885 490.096 88.5178 491.34 88.5178C492.571 88.5178 493.337 89.4954 493.337 91.0813V91.095C493.337 92.6809 492.578 93.6584 491.34 93.6584ZM497.423 86.05C497.929 86.05 498.353 85.6331 498.353 85.1272C498.353 84.6145 497.929 84.1975 497.423 84.1975C496.91 84.1975 496.493 84.6145 496.493 85.1272C496.493 85.6331 496.91 86.05 497.423 86.05ZM496.678 94.8H498.154V87.3762H496.678V94.8ZM502.767 94.8479C503.054 94.8479 503.328 94.8137 503.567 94.7727V93.5901C503.362 93.6106 503.232 93.6174 503.007 93.6174C502.275 93.6174 501.974 93.2893 501.974 92.4895V88.5452H503.567V87.3762H501.974V85.5032H500.464V87.3762H499.302V88.5452H500.464V92.845C500.464 94.2737 501.134 94.8479 502.767 94.8479Z" fill="white" fill-opacity="0.9"/>
</g>
<g filter="url(#filter6_d_60_4622)">
<path d="M527.009 94.8H528.697L532.211 84.9358H530.55L527.911 92.9543H527.795L525.156 84.9358H523.495L527.009 94.8ZM534.185 86.05C534.691 86.05 535.115 85.6331 535.115 85.1272C535.115 84.6145 534.691 84.1975 534.185 84.1975C533.672 84.1975 533.255 84.6145 533.255 85.1272C533.255 85.6331 533.672 86.05 534.185 86.05ZM533.44 94.8H534.917V87.3762H533.44V94.8ZM539.844 94.9436C541.744 94.9436 542.77 93.8499 543.016 92.8723L543.029 92.8108L541.601 92.8176L541.573 92.8723C541.396 93.2551 540.828 93.7268 539.878 93.7268C538.654 93.7268 537.875 92.8997 537.848 91.4778H543.112V90.9583C543.112 88.7297 541.84 87.2327 539.769 87.2327C537.697 87.2327 536.358 88.7844 536.358 91.1018V91.1086C536.358 93.4602 537.67 94.9436 539.844 94.9436ZM539.776 88.4495C540.78 88.4495 541.526 89.092 541.642 90.4182H537.868C537.998 89.1399 538.764 88.4495 539.776 88.4495ZM545.899 94.8H547.41L548.941 89.2629H549.057L550.596 94.8H552.12L554.164 87.3762H552.694L551.368 93.1047H551.252L549.721 87.3762H548.312L546.781 93.1047H546.672L545.339 87.3762H543.848L545.899 94.8Z" fill="white" fill-opacity="0.9"/>
</g>
<g filter="url(#filter7_d_60_4622)">
<path d="M578.41 95.0393C580.994 95.0393 582.669 93.4192 582.669 90.9172V89.6936H578.622V90.9309H581.158V91.1497C581.145 92.6672 580.044 93.6858 578.431 93.6858C576.578 93.6858 575.416 92.2229 575.416 89.8645V89.8508C575.416 87.5266 576.571 86.05 578.396 86.05C579.75 86.05 580.693 86.7063 581.049 87.8752L581.069 87.9436H582.601L582.587 87.8752C582.231 85.968 580.639 84.6965 578.396 84.6965C575.635 84.6965 573.851 86.7268 573.851 89.8577V89.8713C573.851 93.0432 575.614 95.0393 578.41 95.0393ZM587.405 94.9436C589.579 94.9436 590.912 93.4875 590.912 91.095V91.0813C590.912 88.6887 589.572 87.2327 587.405 87.2327C585.231 87.2327 583.891 88.6956 583.891 91.0813V91.095C583.891 93.4875 585.224 94.9436 587.405 94.9436ZM587.405 93.7063C586.127 93.7063 585.409 92.7424 585.409 91.095V91.0813C585.409 89.4338 586.127 88.47 587.405 88.47C588.676 88.47 589.401 89.4338 589.401 91.0813V91.095C589.401 92.7356 588.676 93.7063 587.405 93.7063Z" fill="white" fill-opacity="0.9"/>
</g>
<g filter="url(#filter8_d_60_4622)">
<path d="M613.284 94.8H614.733L616.846 87.4241H616.941L619.061 94.8H620.503L623.169 84.9358H621.576L619.771 92.6057H619.676L617.604 84.9358H616.183L614.125 92.6057H614.029L612.218 84.9358H610.625L613.284 94.8ZM625.273 86.05C625.779 86.05 626.203 85.6331 626.203 85.1272C626.203 84.6145 625.779 84.1975 625.273 84.1975C624.76 84.1975 624.343 84.6145 624.343 85.1272C624.343 85.6331 624.76 86.05 625.273 86.05ZM624.528 94.8H626.004V87.3762H624.528V94.8ZM627.815 94.8H629.298V90.4456C629.298 89.2493 629.975 88.5042 631.062 88.5042C632.149 88.5042 632.661 89.1125 632.661 90.343V94.8H634.138V89.9944C634.138 88.2239 633.222 87.2327 631.561 87.2327C630.481 87.2327 629.77 87.7112 629.407 88.5042H629.298V87.3762H627.815V94.8ZM638.566 94.9231C639.605 94.9231 640.419 94.4446 640.849 93.6311H640.966V94.8H642.442V84.4641H640.966V88.552H640.849C640.453 87.7522 639.585 87.2463 638.566 87.2463C636.679 87.2463 635.49 88.7297 635.49 91.0813V91.095C635.49 93.426 636.7 94.9231 638.566 94.9231ZM638.99 93.6584C637.746 93.6584 637.001 92.6877 637.001 91.095V91.0813C637.001 89.4885 637.746 88.5178 638.99 88.5178C640.221 88.5178 640.986 89.4954 640.986 91.0813V91.095C640.986 92.6809 640.227 93.6584 638.99 93.6584ZM647.445 94.9436C649.619 94.9436 650.952 93.4875 650.952 91.095V91.0813C650.952 88.6887 649.612 87.2327 647.445 87.2327C645.271 87.2327 643.931 88.6956 643.931 91.0813V91.095C643.931 93.4875 645.264 94.9436 647.445 94.9436ZM647.445 93.7063C646.166 93.7063 645.449 92.7424 645.449 91.095V91.0813C645.449 89.4338 646.166 88.47 647.445 88.47C648.716 88.47 649.441 89.4338 649.441 91.0813V91.095C649.441 92.7356 648.716 93.7063 647.445 93.7063ZM653.514 94.8H655.024L656.556 89.2629H656.672L658.21 94.8H659.734L661.778 87.3762H660.309L658.982 93.1047H658.866L657.335 87.3762H655.927L654.396 93.1047H654.286L652.953 87.3762H651.463L653.514 94.8Z" fill="white" fill-opacity="0.9"/>
</g>
<g filter="url(#filter9_d_60_4622)">
<path d="M682.254 94.8H683.785V90.4319H688.851V94.8H690.375V84.9358H688.851V89.1057H683.785V84.9358H682.254V94.8ZM695.446 94.9436C697.346 94.9436 698.372 93.8499 698.618 92.8723L698.631 92.8108L697.203 92.8176L697.175 92.8723C696.998 93.2551 696.43 93.7268 695.48 93.7268C694.256 93.7268 693.477 92.8997 693.45 91.4778H698.713V90.9583C698.713 88.7297 697.442 87.2327 695.371 87.2327C693.299 87.2327 691.96 88.7844 691.96 91.1018V91.1086C691.96 93.4602 693.272 94.9436 695.446 94.9436ZM695.378 88.4495C696.382 88.4495 697.128 89.092 697.244 90.4182H693.47C693.6 89.1399 694.366 88.4495 695.378 88.4495ZM700.196 94.8H701.679V84.4641H700.196V94.8ZM703.537 97.2747H705.02V93.6243H705.13C705.526 94.4241 706.394 94.9231 707.413 94.9231C709.3 94.9231 710.489 93.4465 710.489 91.095V91.0813C710.489 88.7434 709.286 87.2463 707.413 87.2463C706.374 87.2463 705.56 87.7317 705.13 88.5452H705.02V87.3762H703.537V97.2747ZM706.996 93.6584C705.759 93.6584 704.993 92.6809 704.993 91.095V91.0813C704.993 89.4954 705.759 88.5178 706.996 88.5178C708.233 88.5178 708.978 89.4817 708.978 91.0813V91.095C708.978 92.6877 708.233 93.6584 706.996 93.6584Z" fill="white" fill-opacity="0.9"/>
</g>
</g>
<g clip-path="url(#clip5_60_4622)">
<g filter="url(#filter10_d_60_4622)">
<path d="M830.156 95.1516H842.633C843.299 95.1516 843.909 95.0969 844.461 94.9875C845.013 94.8782 845.487 94.6256 845.883 94.2297C846.284 93.8287 846.536 93.3547 846.641 92.8079C846.745 92.261 846.797 91.6516 846.797 90.9797V88.3391C846.797 87.6724 846.745 87.0657 846.641 86.5188C846.536 85.9719 846.284 85.498 845.883 85.0969C845.482 84.7011 845.005 84.4485 844.453 84.3391C843.906 84.2297 843.299 84.175 842.633 84.175H830.141C829.484 84.175 828.88 84.2297 828.328 84.3391C827.781 84.4485 827.307 84.7037 826.906 85.1047C826.51 85.5006 826.258 85.9719 826.148 86.5188C826.044 87.0657 825.992 87.6672 825.992 88.3235V90.9797C825.992 91.6516 826.044 92.261 826.148 92.8079C826.253 93.3547 826.505 93.8287 826.906 94.2297C827.307 94.6256 827.781 94.8782 828.328 94.9875C828.88 95.0969 829.49 95.1516 830.156 95.1516ZM829.945 93.8938C829.544 93.8938 829.148 93.8547 828.758 93.7766C828.372 93.6985 828.06 93.5422 827.82 93.3079C827.586 93.0735 827.432 92.7636 827.359 92.3782C827.286 91.9928 827.25 91.5995 827.25 91.1985V88.1516C827.25 87.7402 827.286 87.3417 827.359 86.9563C827.432 86.5657 827.586 86.2506 827.82 86.011C828.055 85.7766 828.367 85.623 828.758 85.55C829.154 85.4719 829.557 85.4329 829.969 85.4329H842.844C843.245 85.4329 843.638 85.4719 844.023 85.55C844.414 85.623 844.729 85.7792 844.969 86.0188C845.203 86.2532 845.357 86.5631 845.43 86.9485C845.503 87.3339 845.539 87.7271 845.539 88.1282V91.1985C845.539 91.5995 845.503 91.9928 845.43 92.3782C845.357 92.7636 845.203 93.0735 844.969 93.3079C844.729 93.5474 844.414 93.7063 844.023 93.7844C843.638 93.8573 843.245 93.8938 842.844 93.8938H829.945ZM847.859 91.6829C848.068 91.6672 848.284 91.5761 848.508 91.4094C848.732 91.2375 848.922 91.0032 849.078 90.7063C849.234 90.4094 849.312 90.0605 849.312 89.6594C849.312 89.2636 849.234 88.9172 849.078 88.6204C848.922 88.3235 848.732 88.0891 848.508 87.9172C848.284 87.7454 848.068 87.6542 847.859 87.6438V91.6829ZM829.633 92.9016H843.164C843.435 92.9016 843.654 92.8808 843.82 92.8391C843.987 92.7974 844.13 92.7193 844.25 92.6047C844.365 92.4902 844.443 92.3495 844.484 92.1829C844.531 92.011 844.555 91.7896 844.555 91.5188V87.8079C844.555 87.537 844.531 87.3183 844.484 87.1516C844.443 86.9797 844.365 86.8365 844.25 86.7219C844.13 86.6021 843.987 86.524 843.82 86.4875C843.654 86.4459 843.435 86.425 843.164 86.425H829.633C829.357 86.425 829.135 86.4459 828.969 86.4875C828.802 86.524 828.661 86.6021 828.547 86.7219C828.432 86.8365 828.352 86.9797 828.305 87.1516C828.263 87.3183 828.242 87.537 828.242 87.8079V91.5188C828.242 91.7896 828.263 92.011 828.305 92.1829C828.352 92.3495 828.432 92.4902 828.547 92.6047C828.667 92.7193 828.807 92.7974 828.969 92.8391C829.135 92.8808 829.357 92.9016 829.633 92.9016Z" fill="white" fill-opacity="0.9"/>
</g>
<g filter="url(#filter11_d_60_4622)">
<path d="M868.336 97.0266H874.008C874.628 97.0266 875.19 96.8912 875.695 96.6204C876.201 96.3547 876.602 95.9797 876.898 95.4954C877.201 95.0162 877.352 94.4563 877.352 93.8157C877.352 93.175 877.201 92.6152 876.898 92.136C876.602 91.6516 876.201 91.2766 875.695 91.011C875.19 90.7402 874.628 90.6047 874.008 90.6047H868.336C867.716 90.6047 867.154 90.7402 866.648 91.011C866.143 91.2766 865.74 91.6516 865.438 92.136C865.141 92.6152 864.992 93.175 864.992 93.8157C864.992 94.4563 865.141 95.0162 865.438 95.4954C865.74 95.9797 866.143 96.3547 866.648 96.6204C867.154 96.8912 867.716 97.0266 868.336 97.0266ZM874.211 95.8469C873.836 95.8417 873.495 95.748 873.188 95.5657C872.88 95.3834 872.635 95.1386 872.453 94.8313C872.276 94.524 872.188 94.1829 872.188 93.8079C872.188 93.4381 872.276 93.0995 872.453 92.7922C872.635 92.4849 872.88 92.2402 873.188 92.0579C873.495 91.8756 873.836 91.7844 874.211 91.7844C874.586 91.7844 874.927 91.8756 875.234 92.0579C875.547 92.2402 875.794 92.4849 875.977 92.7922C876.159 93.0943 876.247 93.4303 876.242 93.8C876.242 94.175 876.148 94.5188 875.961 94.8313C875.779 95.1438 875.534 95.3912 875.227 95.5735C874.924 95.7558 874.586 95.8469 874.211 95.8469ZM868.656 89.4016H873.695C874.362 89.4016 874.971 89.2532 875.523 88.9563C876.081 88.6594 876.523 88.2428 876.852 87.7063C877.185 87.1698 877.352 86.5474 877.352 85.8391C877.352 85.1308 877.185 84.5084 876.852 83.9719C876.523 83.4355 876.081 83.0188 875.523 82.7219C874.971 82.425 874.362 82.2766 873.695 82.2766H868.656C867.984 82.2766 867.37 82.425 866.812 82.7219C866.26 83.0188 865.818 83.4355 865.484 83.9719C865.156 84.5084 864.992 85.1308 864.992 85.8391C864.992 86.5474 865.156 87.1698 865.484 87.7063C865.818 88.2428 866.26 88.6594 866.812 88.9563C867.37 89.2532 867.984 89.4016 868.656 89.4016ZM868.656 88.2219C868.219 88.2219 867.81 88.123 867.43 87.925C867.055 87.7219 866.75 87.4433 866.516 87.0891C866.286 86.7297 866.172 86.3131 866.172 85.8391C866.172 85.3652 866.286 84.9511 866.516 84.5969C866.75 84.2375 867.055 83.9589 867.43 83.761C867.81 83.5579 868.219 83.4563 868.656 83.4563H873.695C874.128 83.4563 874.531 83.5579 874.906 83.761C875.286 83.9589 875.591 84.2375 875.82 84.5969C876.055 84.9511 876.172 85.3652 876.172 85.8391C876.172 86.3131 876.055 86.7297 875.82 87.0891C875.591 87.4433 875.286 87.7219 874.906 87.925C874.531 88.123 874.128 88.2219 873.695 88.2219H868.656ZM868.656 87.6907C869 87.6959 869.31 87.6152 869.586 87.4485C869.867 87.2766 870.091 87.05 870.258 86.7688C870.43 86.4823 870.516 86.1672 870.516 85.8235C870.521 85.4797 870.44 85.1698 870.273 84.8938C870.107 84.6125 869.88 84.3912 869.594 84.2297C869.312 84.0631 869 83.9797 868.656 83.9797C868.312 83.9797 868 84.0631 867.719 84.2297C867.438 84.3964 867.214 84.6204 867.047 84.9016C866.885 85.1829 866.805 85.4928 866.805 85.8313C866.805 86.175 866.885 86.4875 867.047 86.7688C867.214 87.05 867.438 87.274 867.719 87.4407C868 87.6073 868.312 87.6907 868.656 87.6907Z" fill="white" fill-opacity="0.9"/>
</g>
<g filter="url(#filter12_d_60_4622)">
<path d="M903.805 92.8235C904.451 92.8235 905.057 92.7011 905.625 92.4563C906.193 92.2115 906.693 91.873 907.125 91.4407C907.557 91.0032 907.896 90.5006 908.141 89.9329C908.391 89.3652 908.516 88.7584 908.516 88.1125C908.516 87.4667 908.391 86.8599 908.141 86.2922C907.896 85.7245 907.557 85.2245 907.125 84.7922C906.693 84.3599 906.193 84.0214 905.625 83.7766C905.057 83.5266 904.451 83.4016 903.805 83.4016C903.159 83.4016 902.552 83.5266 901.984 83.7766C901.417 84.0214 900.914 84.3599 900.477 84.7922C900.044 85.2245 899.706 85.7245 899.461 86.2922C899.216 86.8599 899.094 87.4667 899.094 88.1125C899.094 88.7584 899.216 89.3652 899.461 89.9329C899.706 90.5006 900.044 91.0032 900.477 91.4407C900.914 91.873 901.417 92.2115 901.984 92.4563C902.552 92.7011 903.159 92.8235 903.805 92.8235ZM903.805 94.1204C902.977 94.1204 902.201 93.9641 901.477 93.6516C900.753 93.3391 900.115 92.9068 899.562 92.3547C899.01 91.8027 898.578 91.1646 898.266 90.4407C897.953 89.7167 897.797 88.9407 897.797 88.1125C897.797 87.2844 897.953 86.5084 898.266 85.7844C898.578 85.0553 899.01 84.4172 899.562 83.8704C900.115 83.3183 900.753 82.886 901.477 82.5735C902.206 82.261 902.982 82.1047 903.805 82.1047C904.633 82.1047 905.409 82.261 906.133 82.5735C906.857 82.886 907.495 83.3183 908.047 83.8704C908.599 84.4224 909.031 85.0605 909.344 85.7844C909.656 86.5084 909.812 87.2844 909.812 88.1125C909.812 88.9407 909.656 89.7167 909.344 90.4407C909.031 91.1646 908.599 91.8027 908.047 92.3547C907.495 92.9068 906.857 93.3391 906.133 93.6516C905.409 93.9641 904.633 94.1204 903.805 94.1204ZM911.641 96.9563C911.521 96.9563 911.406 96.9355 911.297 96.8938C911.188 96.8521 911.089 96.787 911 96.6985L906.852 92.55L908.133 91.3079L912.258 95.4407C912.346 95.524 912.409 95.6204 912.445 95.7297C912.487 95.8391 912.508 95.9511 912.508 96.0657C912.508 96.2323 912.469 96.3808 912.391 96.511C912.318 96.6464 912.216 96.7532 912.086 96.8313C911.956 96.9146 911.807 96.9563 911.641 96.9563Z" fill="white" fill-opacity="0.9"/>
</g>
<g filter="url(#filter13_d_60_4622)">
<path d="M939.648 96.7922C939.732 96.7922 939.815 96.7662 939.898 96.7141C939.987 96.662 940.104 96.5657 940.25 96.425L942.078 94.6672C942.141 94.6099 942.174 94.5448 942.18 94.4719C942.19 94.3938 942.169 94.3209 942.117 94.2532C941.872 93.9355 941.531 93.6594 941.094 93.425C940.661 93.1907 940.18 93.0735 939.648 93.0735C939.107 93.0735 938.615 93.1959 938.172 93.4407C937.734 93.6855 937.393 93.9719 937.148 94.3C937.112 94.3573 937.099 94.4198 937.109 94.4875C937.125 94.55 937.164 94.6099 937.227 94.6672L939.055 96.425C939.195 96.5657 939.31 96.662 939.398 96.7141C939.487 96.7662 939.57 96.7922 939.648 96.7922ZM935.258 92.6907C935.336 92.7688 935.422 92.8053 935.516 92.8C935.609 92.7948 935.695 92.7506 935.773 92.6672C936.221 92.162 936.792 91.748 937.484 91.425C938.177 91.1021 938.898 90.9433 939.648 90.9485C940.409 90.9433 941.135 91.1073 941.828 91.4407C942.521 91.7688 943.096 92.1855 943.555 92.6907C943.628 92.7688 943.708 92.8079 943.797 92.8079C943.885 92.8027 943.966 92.761 944.039 92.6829L945.203 91.5344C945.266 91.4719 945.299 91.4042 945.305 91.3313C945.31 91.2532 945.286 91.1803 945.234 91.1125C944.854 90.649 944.378 90.2349 943.805 89.8704C943.232 89.5006 942.591 89.2115 941.883 89.0032C941.174 88.7896 940.43 88.6829 939.648 88.6829C938.867 88.6829 938.122 88.7896 937.414 89.0032C936.711 89.2115 936.073 89.5006 935.5 89.8704C934.927 90.2349 934.451 90.649 934.07 91.1125C934.013 91.1803 933.987 91.2506 933.992 91.3235C933.997 91.3964 934.031 91.4667 934.094 91.5344L935.258 92.6907ZM932.133 89.5579C932.206 89.636 932.289 89.675 932.383 89.675C932.482 89.6698 932.565 89.6282 932.633 89.55C933.56 88.5709 934.62 87.8287 935.812 87.3235C937.005 86.8131 938.284 86.5579 939.648 86.5579C941.018 86.5579 942.299 86.8131 943.492 87.3235C944.69 87.8339 945.75 88.5787 946.672 89.5579C946.74 89.6256 946.82 89.6594 946.914 89.6594C947.008 89.6594 947.089 89.6204 947.156 89.5422L948.188 88.5032C948.255 88.4407 948.289 88.3704 948.289 88.2922C948.294 88.2089 948.271 88.136 948.219 88.0735C947.63 87.3495 946.888 86.7037 945.992 86.136C945.096 85.5631 944.104 85.1152 943.016 84.7922C941.932 84.4641 940.81 84.3 939.648 84.3C938.487 84.3 937.362 84.4641 936.273 84.7922C935.185 85.1152 934.193 85.5631 933.297 86.136C932.406 86.7037 931.667 87.3495 931.078 88.0735C931.026 88.136 931 88.2089 931 88.2922C931.005 88.3704 931.039 88.4407 931.102 88.5032L932.133 89.5579Z" fill="white" fill-opacity="0.9"/>
</g>
<g filter="url(#filter14_d_60_4622)">
<path d="M965.237 94.8H966.632V87.5608H966.741L969.633 94.8H970.768L973.666 87.5608H973.769V94.8H975.163V84.9358H973.399L970.255 92.804H970.146L967.001 84.9358H965.237V94.8ZM980.261 94.9436C982.435 94.9436 983.768 93.4875 983.768 91.095V91.0813C983.768 88.6887 982.428 87.2327 980.261 87.2327C978.087 87.2327 976.748 88.6956 976.748 91.0813V91.095C976.748 93.4875 978.081 94.9436 980.261 94.9436ZM980.261 93.7063C978.983 93.7063 978.265 92.7424 978.265 91.095V91.0813C978.265 89.4338 978.983 88.47 980.261 88.47C981.533 88.47 982.257 89.4338 982.257 91.0813V91.095C982.257 92.7356 981.533 93.7063 980.261 93.7063ZM985.189 94.8H986.672V90.4456C986.672 89.2493 987.349 88.5042 988.436 88.5042C989.523 88.5042 990.035 89.1125 990.035 90.343V94.8H991.512V89.9944C991.512 88.2239 990.596 87.2327 988.935 87.2327C987.855 87.2327 987.144 87.7112 986.781 88.5042H986.672V87.3762H985.189V94.8ZM999.186 95.0393C1001.12 95.0393 1002.26 93.8977 1002.26 91.9563V84.9358H1000.73V91.9426C1000.73 93.0637 1000.18 93.6721 999.172 93.6721C998.256 93.6721 997.785 93.0842 997.723 92.3323L997.716 92.2708H996.205L996.212 92.3528C996.294 93.925 997.361 95.0393 999.186 95.0393ZM1006.68 94.9436C1007.76 94.9436 1008.52 94.4788 1008.87 93.679H1008.99V94.8H1010.46V87.3762H1008.99V91.7307C1008.99 92.927 1008.35 93.6721 1007.16 93.6721C1006.08 93.6721 1005.62 93.0637 1005.62 91.8333V87.3762H1004.14V92.1819C1004.14 93.9387 1005.01 94.9436 1006.68 94.9436ZM1012.25 94.8H1013.74V90.4456C1013.74 89.2493 1014.41 88.5042 1015.5 88.5042C1016.59 88.5042 1017.1 89.1125 1017.1 90.343V94.8H1018.58V89.9944C1018.58 88.2239 1017.66 87.2327 1016 87.2327C1014.92 87.2327 1014.21 87.7112 1013.85 88.5042H1013.74V87.3762H1012.25V94.8ZM1023.78 94.8H1030.42V93.4944H1025.86V93.3577L1027.95 91.2727C1029.74 89.4954 1030.26 88.634 1030.26 87.5129V87.4924C1030.26 85.8655 1028.91 84.6965 1027.07 84.6965C1025.09 84.6965 1023.69 85.968 1023.69 87.7727L1023.7 87.7864H1025.14L1025.14 87.7659C1025.14 86.6858 1025.88 85.9612 1026.99 85.9612C1028.07 85.9612 1028.73 86.6721 1028.73 87.636V87.6565C1028.73 88.4563 1028.36 88.9622 1027.05 90.3225L1023.78 93.761V94.8ZM1032.08 94.8H1038.72V93.4944H1034.17V93.3577L1036.26 91.2727C1038.05 89.4954 1038.57 88.634 1038.57 87.5129V87.4924C1038.57 85.8655 1037.21 84.6965 1035.38 84.6965C1033.39 84.6965 1032 85.968 1031.99 87.7727L1032.01 87.7864H1033.44L1033.45 87.7659C1033.45 86.6858 1034.19 85.9612 1035.29 85.9612C1036.37 85.9612 1037.04 86.6721 1037.04 87.636V87.6565C1037.04 88.4563 1036.66 88.9622 1035.35 90.3225L1032.08 93.761V94.8Z" fill="white" fill-opacity="0.9"/>
</g>
<g filter="url(#filter15_d_60_4622)">
<path d="M1058.44 84.6965C1056.37 84.6965 1054.87 86.1458 1054.87 88.1282V88.1418C1054.87 90.0286 1056.22 91.4231 1058.1 91.4231C1059.44 91.4231 1060.34 90.719 1060.69 89.926H1060.83C1060.83 90.0012 1060.82 90.0764 1060.82 90.1516C1060.75 92.1204 1060.05 93.7405 1058.39 93.7405C1057.47 93.7405 1056.82 93.262 1056.54 92.51L1056.52 92.4417H1055L1055.02 92.5237C1055.34 94.0139 1056.64 95.0393 1058.39 95.0393C1060.83 95.0393 1062.29 93.0706 1062.29 89.7278V89.7141C1062.29 86.0911 1060.42 84.6965 1058.44 84.6965ZM1058.44 90.1858C1057.25 90.1858 1056.38 89.3108 1056.38 88.1008V88.0872C1056.38 86.9045 1057.3 85.9817 1058.46 85.9817C1059.62 85.9817 1060.53 86.925 1060.53 88.1282V88.135C1060.53 89.3245 1059.62 90.1858 1058.44 90.1858ZM1064.98 88.2786C1065.54 88.2786 1065.98 87.8342 1065.98 87.2805C1065.98 86.72 1065.54 86.2825 1064.98 86.2825C1064.41 86.2825 1063.97 86.72 1063.97 87.2805C1063.97 87.8342 1064.41 88.2786 1064.98 88.2786ZM1064.98 93.4465C1065.54 93.4465 1065.98 93.0022 1065.98 92.4485C1065.98 91.8879 1065.54 91.4504 1064.98 91.4504C1064.41 91.4504 1063.97 91.8879 1063.97 92.4485C1063.97 93.0022 1064.41 93.4465 1064.98 93.4465ZM1072.43 94.8H1073.9V92.8381H1075.26V91.5393H1073.9V84.9358H1071.72C1070.36 86.9797 1068.91 89.3108 1067.61 91.5393V92.8381H1072.43V94.8ZM1069.08 91.5667V91.4709C1070.1 89.7415 1071.3 87.8206 1072.36 86.2278H1072.45V91.5667H1069.08ZM1079.04 94.8H1080.57V84.9358H1079.04L1076.45 86.7815V88.2854L1078.93 86.5149H1079.04V94.8ZM1085.91 94.8H1087.52L1088.41 92.134H1092.19L1093.07 94.8H1094.69L1091.13 84.9358H1089.47L1085.91 94.8ZM1090.24 86.6653H1090.35L1091.78 90.9036H1088.82L1090.24 86.6653ZM1096.05 94.8H1097.45V87.5608H1097.56L1100.45 94.8H1101.58L1104.48 87.5608H1104.58V94.8H1105.98V84.9358H1104.22L1101.07 92.804H1100.96L1097.82 84.9358H1096.05V94.8Z" fill="white" fill-opacity="0.9"/>
</g>
</g>
</g>
<path fill-rule="evenodd" clip-rule="evenodd" d="M278.7 59.8798C278.7 44.5094 290.896 32 306 32H1129C1144.1 32 1156.3 44.5094 1156.3 59.8798V623.3C1156.3 627.332 1153.03 630.6 1149 630.6H286C281.969 630.6 278.7 627.332 278.7 623.3V59.8798ZM306 34.6C292.386 34.6 281.3 45.891 281.3 59.8798V623.3C281.3 625.896 283.404 628 286 628H1149C1151.6 628 1153.7 625.896 1153.7 623.3V59.8798C1153.7 45.891 1142.61 34.6 1129 34.6H306Z" fill="#6A6B6F"/>
<path d="M1096.99 644C1107.87 644 1177 661 1149.64 661H285.36C257.996 661 327.126 644 338.007 644H1096.99Z" fill="url(#paint0_linear_60_4622)"/>
<path d="M810 634.3V628.8H626V634.3C626.833 635.467 630.5 637.8 638.5 637.8H797.5C805.5 637.8 809.167 635.467 810 634.3Z" fill="url(#paint1_linear_60_4622)"/>
<path d="M626 628.8H181V635.3H627.121C626.568 634.932 626.201 634.582 626 634.3V628.8Z" fill="url(#paint2_linear_60_4622)"/>
<path d="M810 628.8V634.3C809.799 634.582 809.432 634.932 808.88 635.3H1255V628.8H810Z" fill="url(#paint3_linear_60_4622)"/>
<path d="M626.465 634.8C627.847 636.028 631.528 637.8 638.5 637.8H797.5C804.472 637.8 808.153 636.028 809.535 634.8H1255C1245.83 641.133 1213.2 652.8 1156 652.8H280C222.8 652.8 190.167 641.133 181 634.8H626.465Z" fill="url(#paint4_linear_60_4622)"/>
<path fill-rule="evenodd" clip-rule="evenodd" d="M1154 607.3H281V623.3C281 626.061 283.239 628.3 286 628.3H1149C1151.76 628.3 1154 626.061 1154 623.3V607.3Z" fill="#909092"/>
<defs>
<filter id="filter0_b_60_4622" x="249" y="37" width="941" height="154" filterUnits="userSpaceOnUse" color-interpolation-filters="sRGB">
<feFlood flood-opacity="0" result="BackgroundImageFix"/>
<feGaussianBlur in="BackgroundImageFix" stdDeviation="32.5"/>
<feComposite in2="SourceAlpha" operator="in" result="effect1_backgroundBlur_60_4622"/>
<feBlend mode="normal" in="SourceGraphic" in2="effect1_backgroundBlur_60_4622" result="shape"/>
</filter>
<filter id="filter1_b_60_4622" x="248" y="13.3" width="941" height="154" filterUnits="userSpaceOnUse" color-interpolation-filters="sRGB">
<feFlood flood-opacity="0" result="BackgroundImageFix"/>
<feGaussianBlur in="BackgroundImageFix" stdDeviation="32.5"/>
<feComposite in2="SourceAlpha" operator="in" result="effect1_backgroundBlur_60_4622"/>
<feBlend mode="normal" in="SourceGraphic" in2="effect1_backgroundBlur_60_4622" result="shape"/>
</filter>
<filter id="filter2_d_60_4622" x="335" y="80.3" width="21.0166" height="24" filterUnits="userSpaceOnUse" color-interpolation-filters="sRGB">
<feFlood flood-opacity="0" result="BackgroundImageFix"/>
<feColorMatrix in="SourceAlpha" type="matrix" values="0 0 0 0 0 0 0 0 0 0 0 0 0 0 0 0 0 0 127 0" result="hardAlpha"/>
<feOffset dy="2"/>
<feGaussianBlur stdDeviation="2"/>
<feColorMatrix type="matrix" values="0 0 0 0 0 0 0 0 0 0 0 0 0 0 0 0 0 0 0.15 0"/>
<feBlend mode="normal" in2="BackgroundImageFix" result="effect1_dropShadow_60_4622"/>
<feBlend mode="normal" in="SourceGraphic" in2="effect1_dropShadow_60_4622" result="shape"/>
</filter>
<filter id="filter3_d_60_4622" x="373.213" y="82.3967" width="49.5352" height="19.0605" filterUnits="userSpaceOnUse" color-interpolation-filters="sRGB">
<feFlood flood-opacity="0" result="BackgroundImageFix"/>
<feColorMatrix in="SourceAlpha" type="matrix" values="0 0 0 0 0 0 0 0 0 0 0 0 0 0 0 0 0 0 127 0" result="hardAlpha"/>
<feOffset dy="2"/>
<feGaussianBlur stdDeviation="2"/>
<feColorMatrix type="matrix" values="0 0 0 0 0 0 0 0 0 0 0 0 0 0 0 0 0 0 0.15 0"/>
<feBlend mode="normal" in2="BackgroundImageFix" result="effect1_dropShadow_60_4622"/>
<feBlend mode="normal" in="SourceGraphic" in2="effect1_dropShadow_60_4622" result="shape"/>
</filter>
<filter id="filter4_d_60_4622" x="435.254" y="82.1975" width="28.7363" height="18.7461" filterUnits="userSpaceOnUse" color-interpolation-filters="sRGB">
<feFlood flood-opacity="0" result="BackgroundImageFix"/>
<feColorMatrix in="SourceAlpha" type="matrix" values="0 0 0 0 0 0 0 0 0 0 0 0 0 0 0 0 0 0 127 0" result="hardAlpha"/>
<feOffset dy="2"/>
<feGaussianBlur stdDeviation="2"/>
<feColorMatrix type="matrix" values="0 0 0 0 0 0 0 0 0 0 0 0 0 0 0 0 0 0 0.15 0"/>
<feBlend mode="normal" in2="BackgroundImageFix" result="effect1_dropShadow_60_4622"/>
<feBlend mode="normal" in="SourceGraphic" in2="effect1_dropShadow_60_4622" result="shape"/>
</filter>
<filter id="filter5_d_60_4622" x="476.254" y="82.1975" width="31.3135" height="18.7256" filterUnits="userSpaceOnUse" color-interpolation-filters="sRGB">
<feFlood flood-opacity="0" result="BackgroundImageFix"/>
<feColorMatrix in="SourceAlpha" type="matrix" values="0 0 0 0 0 0 0 0 0 0 0 0 0 0 0 0 0 0 127 0" result="hardAlpha"/>
<feOffset dy="2"/>
<feGaussianBlur stdDeviation="2"/>
<feColorMatrix type="matrix" values="0 0 0 0 0 0 0 0 0 0 0 0 0 0 0 0 0 0 0.15 0"/>
<feBlend mode="normal" in2="BackgroundImageFix" result="effect1_dropShadow_60_4622"/>
<feBlend mode="normal" in="SourceGraphic" in2="effect1_dropShadow_60_4622" result="shape"/>
</filter>
<filter id="filter6_d_60_4622" x="519.495" y="82.1975" width="38.6689" height="18.7461" filterUnits="userSpaceOnUse" color-interpolation-filters="sRGB">
<feFlood flood-opacity="0" result="BackgroundImageFix"/>
<feColorMatrix in="SourceAlpha" type="matrix" values="0 0 0 0 0 0 0 0 0 0 0 0 0 0 0 0 0 0 127 0" result="hardAlpha"/>
<feOffset dy="2"/>
<feGaussianBlur stdDeviation="2"/>
<feColorMatrix type="matrix" values="0 0 0 0 0 0 0 0 0 0 0 0 0 0 0 0 0 0 0.15 0"/>
<feBlend mode="normal" in2="BackgroundImageFix" result="effect1_dropShadow_60_4622"/>
<feBlend mode="normal" in="SourceGraphic" in2="effect1_dropShadow_60_4622" result="shape"/>
</filter>
<filter id="filter7_d_60_4622" x="569.851" y="82.6965" width="25.061" height="18.3428" filterUnits="userSpaceOnUse" color-interpolation-filters="sRGB">
<feFlood flood-opacity="0" result="BackgroundImageFix"/>
<feColorMatrix in="SourceAlpha" type="matrix" values="0 0 0 0 0 0 0 0 0 0 0 0 0 0 0 0 0 0 127 0" result="hardAlpha"/>
<feOffset dy="2"/>
<feGaussianBlur stdDeviation="2"/>
<feColorMatrix type="matrix" values="0 0 0 0 0 0 0 0 0 0 0 0 0 0 0 0 0 0 0.15 0"/>
<feBlend mode="normal" in2="BackgroundImageFix" result="effect1_dropShadow_60_4622"/>
<feBlend mode="normal" in="SourceGraphic" in2="effect1_dropShadow_60_4622" result="shape"/>
</filter>
<filter id="filter8_d_60_4622" x="606.625" y="82.1975" width="59.1533" height="18.7461" filterUnits="userSpaceOnUse" color-interpolation-filters="sRGB">
<feFlood flood-opacity="0" result="BackgroundImageFix"/>
<feColorMatrix in="SourceAlpha" type="matrix" values="0 0 0 0 0 0 0 0 0 0 0 0 0 0 0 0 0 0 127 0" result="hardAlpha"/>
<feOffset dy="2"/>
<feGaussianBlur stdDeviation="2"/>
<feColorMatrix type="matrix" values="0 0 0 0 0 0 0 0 0 0 0 0 0 0 0 0 0 0 0.15 0"/>
<feBlend mode="normal" in2="BackgroundImageFix" result="effect1_dropShadow_60_4622"/>
<feBlend mode="normal" in="SourceGraphic" in2="effect1_dropShadow_60_4622" result="shape"/>
</filter>
<filter id="filter9_d_60_4622" x="678.254" y="82.4641" width="36.2354" height="20.8105" filterUnits="userSpaceOnUse" color-interpolation-filters="sRGB">
<feFlood flood-opacity="0" result="BackgroundImageFix"/>
<feColorMatrix in="SourceAlpha" type="matrix" values="0 0 0 0 0 0 0 0 0 0 0 0 0 0 0 0 0 0 127 0" result="hardAlpha"/>
<feOffset dy="2"/>
<feGaussianBlur stdDeviation="2"/>
<feColorMatrix type="matrix" values="0 0 0 0 0 0 0 0 0 0 0 0 0 0 0 0 0 0 0.15 0"/>
<feBlend mode="normal" in2="BackgroundImageFix" result="effect1_dropShadow_60_4622"/>
<feBlend mode="normal" in="SourceGraphic" in2="effect1_dropShadow_60_4622" result="shape"/>
</filter>
<filter id="filter10_d_60_4622" x="821.992" y="82.175" width="31.3203" height="18.9766" filterUnits="userSpaceOnUse" color-interpolation-filters="sRGB">
<feFlood flood-opacity="0" result="BackgroundImageFix"/>
<feColorMatrix in="SourceAlpha" type="matrix" values="0 0 0 0 0 0 0 0 0 0 0 0 0 0 0 0 0 0 127 0" result="hardAlpha"/>
<feOffset dy="2"/>
<feGaussianBlur stdDeviation="2"/>
<feColorMatrix type="matrix" values="0 0 0 0 0 0 0 0 0 0 0 0 0 0 0 0 0 0 0.15 0"/>
<feBlend mode="normal" in2="BackgroundImageFix" result="effect1_dropShadow_60_4622"/>
<feBlend mode="normal" in="SourceGraphic" in2="effect1_dropShadow_60_4622" result="shape"/>
</filter>
<filter id="filter11_d_60_4622" x="860.992" y="80.2766" width="20.3594" height="22.75" filterUnits="userSpaceOnUse" color-interpolation-filters="sRGB">
<feFlood flood-opacity="0" result="BackgroundImageFix"/>
<feColorMatrix in="SourceAlpha" type="matrix" values="0 0 0 0 0 0 0 0 0 0 0 0 0 0 0 0 0 0 127 0" result="hardAlpha"/>
<feOffset dy="2"/>
<feGaussianBlur stdDeviation="2"/>
<feColorMatrix type="matrix" values="0 0 0 0 0 0 0 0 0 0 0 0 0 0 0 0 0 0 0.15 0"/>
<feBlend mode="normal" in2="BackgroundImageFix" result="effect1_dropShadow_60_4622"/>
<feBlend mode="normal" in="SourceGraphic" in2="effect1_dropShadow_60_4622" result="shape"/>
</filter>
<filter id="filter12_d_60_4622" x="893.797" y="80.1047" width="22.7109" height="22.8516" filterUnits="userSpaceOnUse" color-interpolation-filters="sRGB">
<feFlood flood-opacity="0" result="BackgroundImageFix"/>
<feColorMatrix in="SourceAlpha" type="matrix" values="0 0 0 0 0 0 0 0 0 0 0 0 0 0 0 0 0 0 127 0" result="hardAlpha"/>
<feOffset dy="2"/>
<feGaussianBlur stdDeviation="2"/>
<feColorMatrix type="matrix" values="0 0 0 0 0 0 0 0 0 0 0 0 0 0 0 0 0 0 0.15 0"/>
<feBlend mode="normal" in2="BackgroundImageFix" result="effect1_dropShadow_60_4622"/>
<feBlend mode="normal" in="SourceGraphic" in2="effect1_dropShadow_60_4622" result="shape"/>
</filter>
<filter id="filter13_d_60_4622" x="927" y="82.3" width="25.29" height="20.4922" filterUnits="userSpaceOnUse" color-interpolation-filters="sRGB">
<feFlood flood-opacity="0" result="BackgroundImageFix"/>
<feColorMatrix in="SourceAlpha" type="matrix" values="0 0 0 0 0 0 0 0 0 0 0 0 0 0 0 0 0 0 127 0" result="hardAlpha"/>
<feOffset dy="2"/>
<feGaussianBlur stdDeviation="2"/>
<feColorMatrix type="matrix" values="0 0 0 0 0 0 0 0 0 0 0 0 0 0 0 0 0 0 0.15 0"/>
<feBlend mode="normal" in2="BackgroundImageFix" result="effect1_dropShadow_60_4622"/>
<feBlend mode="normal" in="SourceGraphic" in2="effect1_dropShadow_60_4622" result="shape"/>
</filter>
<filter id="filter14_d_60_4622" x="961.237" y="82.6965" width="81.4873" height="18.3428" filterUnits="userSpaceOnUse" color-interpolation-filters="sRGB">
<feFlood flood-opacity="0" result="BackgroundImageFix"/>
<feColorMatrix in="SourceAlpha" type="matrix" values="0 0 0 0 0 0 0 0 0 0 0 0 0 0 0 0 0 0 127 0" result="hardAlpha"/>
<feOffset dy="2"/>
<feGaussianBlur stdDeviation="2"/>
<feColorMatrix type="matrix" values="0 0 0 0 0 0 0 0 0 0 0 0 0 0 0 0 0 0 0.15 0"/>
<feBlend mode="normal" in2="BackgroundImageFix" result="effect1_dropShadow_60_4622"/>
<feBlend mode="normal" in="SourceGraphic" in2="effect1_dropShadow_60_4622" result="shape"/>
</filter>
<filter id="filter15_d_60_4622" x="1050.87" y="82.6965" width="59.1113" height="18.3428" filterUnits="userSpaceOnUse" color-interpolation-filters="sRGB">
<feFlood flood-opacity="0" result="BackgroundImageFix"/>
<feColorMatrix in="SourceAlpha" type="matrix" values="0 0 0 0 0 0 0 0 0 0 0 0 0 0 0 0 0 0 127 0" result="hardAlpha"/>
<feOffset dy="2"/>
<feGaussianBlur stdDeviation="2"/>
<feColorMatrix type="matrix" values="0 0 0 0 0 0 0 0 0 0 0 0 0 0 0 0 0 0 0.15 0"/>
<feBlend mode="normal" in2="BackgroundImageFix" result="effect1_dropShadow_60_4622"/>
<feBlend mode="normal" in="SourceGraphic" in2="effect1_dropShadow_60_4622" result="shape"/>
</filter>
<linearGradient id="paint0_linear_60_4622" x1="717.5" y1="661" x2="717.5" y2="644" gradientUnits="userSpaceOnUse">
<stop stop-color="#9B9EA0" stop-opacity="0"/>
<stop offset="1" stop-color="#1B1D1E"/>
</linearGradient>
<linearGradient id="paint1_linear_60_4622" x1="626" y1="631.8" x2="810" y2="631.8" gradientUnits="userSpaceOnUse">
<stop stop-color="#2E2F34"/>
<stop offset="0.116817" stop-color="#5C5D62"/>
<stop offset="0.253445" stop-color="#7E7F84"/>
<stop offset="0.505951" stop-color="#7E7F84"/>
<stop offset="0.734504" stop-color="#7E7F84"/>
<stop offset="0.908586" stop-color="#57585D"/>
<stop offset="1" stop-color="#303136"/>
</linearGradient>
<linearGradient id="paint2_linear_60_4622" x1="181" y1="632.306" x2="1255" y2="632.302" gradientUnits="userSpaceOnUse">
<stop stop-color="#3E3F43"/>
<stop offset="0.0244084" stop-color="#8A8B8F"/>
<stop offset="0.979558" stop-color="#8A8B8F"/>
<stop offset="1" stop-color="#46474B"/>
</linearGradient>
<linearGradient id="paint3_linear_60_4622" x1="181" y1="632.306" x2="1255" y2="632.302" gradientUnits="userSpaceOnUse">
<stop stop-color="#3E3F43"/>
<stop offset="0.0244084" stop-color="#8A8B8F"/>
<stop offset="0.979558" stop-color="#8A8B8F"/>
<stop offset="1" stop-color="#46474B"/>
</linearGradient>
<linearGradient id="paint4_linear_60_4622" x1="718" y1="635.3" x2="718" y2="663.8" gradientUnits="userSpaceOnUse">
<stop stop-color="#55565A"/>
<stop offset="1"/>
</linearGradient>
<clipPath id="clip0_60_4622">
<rect width="811" height="511" fill="white" transform="translate(313 78.3)"/>
</clipPath>
<clipPath id="clip1_60_4622">
<path d="M314 112C314 106.477 318.477 102 324 102H1115C1120.52 102 1125 106.477 1125 112V126H314V112Z" fill="white"/>
</clipPath>
<clipPath id="clip2_60_4622">
<rect x="314" y="102" width="811" height="24" fill="white"/>
</clipPath>
<clipPath id="clip3_60_4622">
<rect x="313" y="78.3" width="811" height="24" fill="white"/>
</clipPath>
<clipPath id="clip4_60_4622">
<rect width="395.017" height="24" fill="white" transform="translate(325 78.3)"/>
</clipPath>
<clipPath id="clip5_60_4622">
<rect width="288" height="24" fill="white" transform="translate(824 78.3)"/>
</clipPath>
</defs>
</svg>
