<?xml version="1.0" encoding="UTF-8" standalone="no"?>
<svg
   width="1074"
   height="629"
   viewBox="0 0 1074 629"
   fill="none"
   version="1.1"
   id="svg421"
   xmlns="http://www.w3.org/2000/svg"
   xmlns:svg="http://www.w3.org/2000/svg">
  <path
     d="M 99,27.8798 C 99,13.2002 110.641,1.3 125,1.3 h 823 c 14.36,0 26,11.9002 26,26.5798 V 591.3 c 0,3.314 -2.69,6 -6,6 H 105 c -3.314,0 -6,-2.686 -6,-6 z"
     fill="#000000"
     id="path2" />
  <circle
     cx="537"
     cy="23.299999"
     r="2.9000001"
     fill="#0f0f0f"
     stroke="#151515"
     stroke-width="0.2"
     id="circle4" />
  <circle
     cx="536.70001"
     cy="24"
     r="0.69999999"
     fill="#16181e"
     id="circle6" />
  <circle
     cx="536.70001"
     cy="23"
     r="0.69999999"
     fill="#0a0b0d"
     id="circle8" />
  <circle
     opacity="0.6"
     cx="537"
     cy="23.299999"
     r="1"
     fill="#1f2531"
     id="circle10" />
  <g
     clip-path="url(#clip0_60_4622)"
     id="g114"
     transform="translate(-181,-32)">
    <rect
       width="811"
       height="511"
       transform="translate(313,78.3)"
       fill="#000000"
       id="rect12"
       x="0"
       y="0" />
    <rect
       x="313"
       y="78.300003"
       width="811"
       height="511"
       fill="#300a24"
       id="rect14" />
    <g
       clip-path="url(#clip1_60_4622)"
       id="g40">
      <rect
         width="811"
         height="24"
         transform="translate(314,102)"
         fill="#ffffff"
         id="rect16"
         x="0"
         y="0" />
      <g
         clip-path="url(#clip2_60_4622)"
         id="g26">
        <g
           filter="url(#filter0_b_60_4622)"
           id="g20">
          <rect
             x="314"
             y="102"
             width="811"
             height="24"
             fill="#4f4f4f"
             fill-opacity="0.2"
             id="rect18" />
        </g>
        <g
           style="mix-blend-mode:color-burn"
           opacity="0.2"
           id="g24">
          <rect
             x="314"
             y="102"
             width="811"
             height="24"
             fill="#8f8f8f"
             id="rect22" />
        </g>
      </g>
      <path
         fill-rule="evenodd"
         clip-rule="evenodd"
         d="m 333,120 c 3.314,0 6,-2.686 6,-6 0,-3.314 -2.686,-6 -6,-6 -3.314,0 -6,2.686 -6,6 0,3.314 2.686,6 6,6 z"
         fill="#ff5e57"
         id="path28" />
      <path
         d="m 338.75,114 c 0,3.176 -2.574,5.75 -5.75,5.75 -3.176,0 -5.75,-2.574 -5.75,-5.75 0,-3.176 2.574,-5.75 5.75,-5.75 3.176,0 5.75,2.574 5.75,5.75 z"
         stroke="#000000"
         stroke-opacity="0.12"
         stroke-width="0.5"
         id="path30" />
      <path
         fill-rule="evenodd"
         clip-rule="evenodd"
         d="m 353,120 c 3.314,0 6,-2.686 6,-6 0,-3.314 -2.686,-6 -6,-6 -3.314,0 -6,2.686 -6,6 0,3.314 2.686,6 6,6 z"
         fill="#ffbb2e"
         id="path32" />
      <path
         d="m 358.75,114 c 0,3.176 -2.574,5.75 -5.75,5.75 -3.176,0 -5.75,-2.574 -5.75,-5.75 0,-3.176 2.574,-5.75 5.75,-5.75 3.176,0 5.75,2.574 5.75,5.75 z"
         stroke="#000000"
         stroke-opacity="0.12"
         stroke-width="0.5"
         id="path34" />
      <path
         fill-rule="evenodd"
         clip-rule="evenodd"
         d="m 373,120 c 3.314,0 6,-2.686 6,-6 0,-3.314 -2.686,-6 -6,-6 -3.314,0 -6,2.686 -6,6 0,3.314 2.686,6 6,6 z"
         fill="#38c149"
         id="path36" />
      <path
         d="m 378.75,114 c 0,3.176 -2.574,5.75 -5.75,5.75 -3.176,0 -5.75,-2.574 -5.75,-5.75 0,-3.176 2.574,-5.75 5.75,-5.75 3.176,0 5.75,2.574 5.75,5.75 z"
         stroke="#000000"
         stroke-opacity="0.12"
         stroke-width="0.5"
         id="path38" />
    </g>
    <g
       clip-path="url(#clip3_60_4622)"
       id="g52">
      <g
         filter="url(#filter1_b_60_4622)"
         id="g46">
        <rect
           x="313"
           y="78.300003"
           width="811"
           height="24"
           fill="#4f4f4f"
           fill-opacity="0.2"
           id="rect44" />
      </g>
      <g
         style="mix-blend-mode:color-burn"
         opacity="0.2"
         id="g50">
        <rect
           x="313"
           y="78.300003"
           width="811"
           height="24"
           fill="#8f8f8f"
           id="rect48" />
      </g>
    </g>
    <g
       clip-path="url(#clip4_60_4622)"
       id="g86">
      <g
         filter="url(#filter2_d_60_4622)"
         id="g56">
        <path
           d="m 347.861,84.8549 c 0.501,-0.5983 0.849,-1.4149 0.849,-2.2395 0,-0.1132 -0.008,-0.2264 -0.032,-0.3154 -0.801,0.0324 -1.771,0.5337 -2.353,1.2128 -0.453,0.5174 -0.873,1.3421 -0.873,2.1667 0,0.1294 0.016,0.2507 0.032,0.2911 0.049,0.0081 0.129,0.0242 0.21,0.0242 0.728,0 1.633,-0.485 2.167,-1.1399 z m 0.574,1.3097 c -1.213,0 -2.191,0.7358 -2.822,0.7358 -0.671,0 -1.544,-0.6873 -2.595,-0.6873 -1.997,0 -4.018,1.6494 -4.018,4.754 0,1.9403 0.744,3.9858 1.674,5.3036 0.792,1.1158 1.487,2.0293 2.482,2.0293 0.994,0 1.431,-0.6548 2.651,-0.6548 1.254,0 1.529,0.6387 2.628,0.6387 1.083,0 1.803,-0.9945 2.482,-1.9727 0.768,-1.1238 1.084,-2.2153 1.1,-2.2719 -0.065,-0.0162 -2.143,-0.8651 -2.143,-3.2339 0,-2.0536 1.633,-2.9753 1.722,-3.048 -1.067,-1.5443 -2.708,-1.5928 -3.161,-1.5928 z"
           fill="#ffffff"
           fill-opacity="0.9"
           id="path54" />
      </g>
      <g
         filter="url(#filter3_d_60_4622)"
         id="g60">
        <path
           d="m 377.213,95.3 h 2.064 v -3.8828 h 4.013 v -1.6338 h -4.013 v -2.6455 h 4.396 v -1.7021 h -6.46 z m 8.837,-8.6816 c 0.616,0 1.121,-0.4922 1.121,-1.1074 0,-0.6221 -0.505,-1.1143 -1.121,-1.1143 -0.615,0 -1.128,0.4922 -1.128,1.1143 0,0.6152 0.513,1.1074 1.128,1.1074 z M 385.046,95.3 h 1.996 v -7.5263 h -1.996 z m 3.655,0 h 1.996 v -4.3544 c 0,-1.0186 0.561,-1.6817 1.484,-1.6817 0.943,0 1.381,0.5606 1.381,1.6201 V 95.3 h 1.996 v -4.8671 c 0,-1.7979 -0.903,-2.8233 -2.577,-2.8233 -1.074,0 -1.819,0.5127 -2.16,1.3262 h -0.124 v -1.1621 h -1.996 z m 11.128,0.1163 c 1.059,0 1.859,-0.4717 2.249,-1.2852 h 0.123 V 95.3 h 1.996 V 84.8958 h -1.996 v 4.081 h -0.123 c -0.376,-0.8203 -1.217,-1.3262 -2.249,-1.3262 -1.907,0 -3.056,1.4561 -3.056,3.876 v 0.0137 c 0,2.4062 1.176,3.876 3.056,3.876 z m 0.677,-1.6543 c -1.053,0 -1.702,-0.834 -1.702,-2.2217 v -0.0137 c 0,-1.374 0.649,-2.2217 1.702,-2.2217 1.052,0 1.715,0.8477 1.715,2.2285 v 0.0137 c 0,1.3809 -0.656,2.2149 -1.715,2.2149 z m 8.714,1.6953 c 2.201,0 3.172,-1.2715 3.404,-2.2149 l 0.014,-0.0683 h -1.859 l -0.021,0.041 c -0.137,0.2871 -0.622,0.7519 -1.497,0.7519 -1.059,0 -1.723,-0.7177 -1.743,-1.955 h 5.182 v -0.6221 c 0,-2.2764 -1.368,-3.7803 -3.562,-3.7803 -2.194,0 -3.596,1.5381 -3.596,3.9307 v 0.0068 c 0,2.4131 1.388,3.9102 3.678,3.9102 z m -0.048,-6.3506 c 0.868,0 1.491,0.5605 1.614,1.6543 h -3.248 c 0.124,-1.0664 0.766,-1.6543 1.634,-1.6543 z m 4.811,6.1933 h 1.996 v -4.2109 c 0,-1.0664 0.718,-1.7158 1.853,-1.7158 0.308,0 0.615,0.0478 0.916,0.1162 v -1.7432 c -0.198,-0.0546 -0.478,-0.0957 -0.745,-0.0957 -0.978,0 -1.661,0.4786 -1.9,1.292 h -0.124 v -1.1689 h -1.996 z"
           fill="#ffffff"
           fill-opacity="0.9"
           id="path58" />
      </g>
      <g
         filter="url(#filter4_d_60_4622)"
         id="g64">
        <path
           d="m 439.254,94.8 h 1.531 v -4.1289 h 4.238 v -1.2919 h -4.238 v -3.1241 h 4.628 v -1.3193 h -6.159 z m 8.4,-8.75 c 0.506,0 0.93,-0.4169 0.93,-0.9228 0,-0.5127 -0.424,-0.9297 -0.93,-0.9297 -0.513,0 -0.93,0.417 -0.93,0.9297 0,0.5059 0.417,0.9228 0.93,0.9228 z m -0.745,8.75 h 1.476 v -7.4238 h -1.476 z m 3.355,0 h 1.483 V 84.4641 h -1.483 z m 6.458,0.1436 c 1.901,0 2.926,-1.0937 3.172,-2.0713 l 0.014,-0.0615 -1.429,0.0068 -0.027,0.0547 c -0.178,0.3828 -0.745,0.8545 -1.695,0.8545 -1.224,0 -2.003,-0.8271 -2.031,-2.249 h 5.264 v -0.5195 c 0,-2.2286 -1.271,-3.7256 -3.343,-3.7256 -2.071,0 -3.411,1.5517 -3.411,3.8691 v 0.0068 c 0,2.3516 1.313,3.835 3.486,3.835 z m -0.068,-6.4941 c 1.005,0 1.75,0.6425 1.866,1.9687 h -3.773 c 0.13,-1.2783 0.895,-1.9687 1.907,-1.9687 z"
           fill="#ffffff"
           fill-opacity="0.9"
           id="path62" />
      </g>
      <g
         filter="url(#filter5_d_60_4622)"
         id="g68">
        <path
           d="m 480.254,94.8 h 6.262 v -1.3193 h -4.731 v -3.0693 h 4.478 v -1.2715 h -4.478 v -2.8848 h 4.731 v -1.3193 h -6.262 z m 10.663,0.1231 c 1.039,0 1.852,-0.4785 2.283,-1.292 h 0.116 V 94.8 h 1.477 V 84.4641 h -1.477 V 88.552 H 493.2 c -0.397,-0.7998 -1.265,-1.3057 -2.283,-1.3057 -1.887,0 -3.077,1.4834 -3.077,3.835 v 0.0137 c 0,2.331 1.21,3.8281 3.077,3.8281 z m 0.423,-1.2647 c -1.244,0 -1.989,-0.9707 -1.989,-2.5634 v -0.0137 c 0,-1.5928 0.745,-2.5635 1.989,-2.5635 1.231,0 1.997,0.9776 1.997,2.5635 v 0.0137 c 0,1.5859 -0.759,2.5634 -1.997,2.5634 z m 6.083,-7.6084 c 0.506,0 0.93,-0.4169 0.93,-0.9228 0,-0.5127 -0.424,-0.9297 -0.93,-0.9297 -0.513,0 -0.93,0.417 -0.93,0.9297 0,0.5059 0.417,0.9228 0.93,0.9228 z m -0.745,8.75 h 1.476 v -7.4238 h -1.476 z m 6.089,0.0479 c 0.287,0 0.561,-0.0342 0.8,-0.0752 v -1.1826 c -0.205,0.0205 -0.335,0.0273 -0.56,0.0273 -0.732,0 -1.033,-0.3281 -1.033,-1.1279 v -3.9443 h 1.593 v -1.169 h -1.593 v -1.873 h -1.51 v 1.873 h -1.162 v 1.169 h 1.162 v 4.2998 c 0,1.4287 0.67,2.0029 2.303,2.0029 z"
           fill="#ffffff"
           fill-opacity="0.9"
           id="path66" />
      </g>
      <g
         filter="url(#filter6_d_60_4622)"
         id="g72">
        <path
           d="m 527.009,94.8 h 1.688 l 3.514,-9.8642 h -1.661 l -2.639,8.0185 h -0.116 l -2.639,-8.0185 h -1.661 z m 7.176,-8.75 c 0.506,0 0.93,-0.4169 0.93,-0.9228 0,-0.5127 -0.424,-0.9297 -0.93,-0.9297 -0.513,0 -0.93,0.417 -0.93,0.9297 0,0.5059 0.417,0.9228 0.93,0.9228 z m -0.745,8.75 h 1.477 v -7.4238 h -1.477 z m 6.404,0.1436 c 1.9,0 2.926,-1.0937 3.172,-2.0713 l 0.013,-0.0615 -1.428,0.0068 -0.028,0.0547 c -0.177,0.3828 -0.745,0.8545 -1.695,0.8545 -1.224,0 -2.003,-0.8271 -2.03,-2.249 h 5.264 v -0.5195 c 0,-2.2286 -1.272,-3.7256 -3.343,-3.7256 -2.072,0 -3.411,1.5517 -3.411,3.8691 v 0.0068 c 0,2.3516 1.312,3.835 3.486,3.835 z m -0.068,-6.4941 c 1.004,0 1.75,0.6425 1.866,1.9687 h -3.774 c 0.13,-1.2783 0.896,-1.9687 1.908,-1.9687 z m 6.123,6.3505 h 1.511 l 1.531,-5.5371 h 0.116 l 1.539,5.5371 h 1.524 l 2.044,-7.4238 h -1.47 l -1.326,5.7285 h -0.116 l -1.531,-5.7285 h -1.409 l -1.531,5.7285 h -0.109 l -1.333,-5.7285 h -1.491 z"
           fill="#ffffff"
           fill-opacity="0.9"
           id="path70" />
      </g>
      <g
         filter="url(#filter7_d_60_4622)"
         id="g76">
        <path
           d="m 578.41,95.0393 c 2.584,0 4.259,-1.6201 4.259,-4.1221 v -1.2236 h -4.047 v 1.2373 h 2.536 v 0.2188 c -0.013,1.5175 -1.114,2.5361 -2.727,2.5361 -1.853,0 -3.015,-1.4629 -3.015,-3.8213 v -0.0137 c 0,-2.3242 1.155,-3.8008 2.98,-3.8008 1.354,0 2.297,0.6563 2.653,1.8252 l 0.02,0.0684 h 1.532 l -0.014,-0.0684 c -0.356,-1.9072 -1.948,-3.1787 -4.191,-3.1787 -2.761,0 -4.545,2.0303 -4.545,5.1612 v 0.0136 c 0,3.1719 1.763,5.168 4.559,5.168 z m 8.995,-0.0957 c 2.174,0 3.507,-1.4561 3.507,-3.8486 v -0.0137 c 0,-2.3926 -1.34,-3.8486 -3.507,-3.8486 -2.174,0 -3.514,1.4629 -3.514,3.8486 v 0.0137 c 0,2.3925 1.333,3.8486 3.514,3.8486 z m 0,-1.2373 c -1.278,0 -1.996,-0.9639 -1.996,-2.6113 v -0.0137 c 0,-1.6475 0.718,-2.6113 1.996,-2.6113 1.271,0 1.996,0.9638 1.996,2.6113 v 0.0137 c 0,1.6406 -0.725,2.6113 -1.996,2.6113 z"
           fill="#ffffff"
           fill-opacity="0.9"
           id="path74" />
      </g>
      <g
         filter="url(#filter8_d_60_4622)"
         id="g80">
        <path
           d="m 613.284,94.8 h 1.449 l 2.113,-7.3759 h 0.095 l 2.12,7.3759 h 1.442 l 2.666,-9.8642 h -1.593 l -1.805,7.6699 h -0.095 l -2.072,-7.6699 h -1.421 l -2.058,7.6699 h -0.096 l -1.811,-7.6699 h -1.593 z m 11.989,-8.75 c 0.506,0 0.93,-0.4169 0.93,-0.9228 0,-0.5127 -0.424,-0.9297 -0.93,-0.9297 -0.513,0 -0.93,0.417 -0.93,0.9297 0,0.5059 0.417,0.9228 0.93,0.9228 z m -0.745,8.75 h 1.476 v -7.4238 h -1.476 z m 3.287,0 h 1.483 v -4.3544 c 0,-1.1963 0.677,-1.9414 1.764,-1.9414 1.087,0 1.599,0.6083 1.599,1.8388 V 94.8 h 1.477 v -4.8056 c 0,-1.7705 -0.916,-2.7617 -2.577,-2.7617 -1.08,0 -1.791,0.4785 -2.154,1.2715 h -0.109 v -1.128 h -1.483 z m 10.751,0.1231 c 1.039,0 1.853,-0.4785 2.283,-1.292 h 0.117 V 94.8 h 1.476 V 84.4641 h -1.476 v 4.0879 h -0.117 c -0.396,-0.7998 -1.264,-1.3057 -2.283,-1.3057 -1.887,0 -3.076,1.4834 -3.076,3.835 v 0.0137 c 0,2.331 1.21,3.8281 3.076,3.8281 z m 0.424,-1.2647 c -1.244,0 -1.989,-0.9707 -1.989,-2.5634 v -0.0137 c 0,-1.5928 0.745,-2.5635 1.989,-2.5635 1.231,0 1.996,0.9776 1.996,2.5635 v 0.0137 c 0,1.5859 -0.759,2.5634 -1.996,2.5634 z m 8.455,1.2852 c 2.174,0 3.507,-1.4561 3.507,-3.8486 v -0.0137 c 0,-2.3926 -1.34,-3.8486 -3.507,-3.8486 -2.174,0 -3.514,1.4629 -3.514,3.8486 v 0.0137 c 0,2.3925 1.333,3.8486 3.514,3.8486 z m 0,-1.2373 c -1.279,0 -1.996,-0.9639 -1.996,-2.6113 v -0.0137 c 0,-1.6475 0.717,-2.6113 1.996,-2.6113 1.271,0 1.996,0.9638 1.996,2.6113 v 0.0137 c 0,1.6406 -0.725,2.6113 -1.996,2.6113 z m 6.069,1.0937 h 1.51 l 1.532,-5.5371 h 0.116 L 658.21,94.8 h 1.524 l 2.044,-7.4238 h -1.469 l -1.327,5.7285 h -0.116 l -1.531,-5.7285 h -1.408 l -1.531,5.7285 h -0.11 l -1.333,-5.7285 h -1.49 z"
           fill="#ffffff"
           fill-opacity="0.9"
           id="path78" />
      </g>
      <g
         filter="url(#filter9_d_60_4622)"
         id="g84">
        <path
           d="m 682.254,94.8 h 1.531 v -4.3681 h 5.066 V 94.8 h 1.524 v -9.8642 h -1.524 v 4.1699 h -5.066 v -4.1699 h -1.531 z m 13.192,0.1436 c 1.9,0 2.926,-1.0937 3.172,-2.0713 l 0.013,-0.0615 -1.428,0.0068 -0.028,0.0547 c -0.177,0.3828 -0.745,0.8545 -1.695,0.8545 -1.224,0 -2.003,-0.8271 -2.03,-2.249 h 5.263 v -0.5195 c 0,-2.2286 -1.271,-3.7256 -3.342,-3.7256 -2.072,0 -3.411,1.5517 -3.411,3.8691 v 0.0068 c 0,2.3516 1.312,3.835 3.486,3.835 z m -0.068,-6.4941 c 1.004,0 1.75,0.6425 1.866,1.9687 h -3.774 c 0.13,-1.2783 0.896,-1.9687 1.908,-1.9687 z m 4.818,6.3505 h 1.483 V 84.4641 h -1.483 z m 3.341,2.4747 h 1.483 v -3.6504 h 0.11 c 0.396,0.7998 1.264,1.2988 2.283,1.2988 1.887,0 3.076,-1.4766 3.076,-3.8281 v -0.0137 c 0,-2.3379 -1.203,-3.835 -3.076,-3.835 -1.039,0 -1.853,0.4854 -2.283,1.2989 h -0.11 v -1.169 h -1.483 z m 3.459,-3.6163 c -1.237,0 -2.003,-0.9775 -2.003,-2.5634 v -0.0137 c 0,-1.5859 0.766,-2.5635 2.003,-2.5635 1.237,0 1.982,0.9639 1.982,2.5635 v 0.0137 c 0,1.5927 -0.745,2.5634 -1.982,2.5634 z"
           fill="#ffffff"
           fill-opacity="0.9"
           id="path82" />
      </g>
    </g>
    <g
       clip-path="url(#clip5_60_4622)"
       id="g112">
      <g
         filter="url(#filter10_d_60_4622)"
         id="g90">
        <path
           d="m 830.156,95.1516 h 12.477 c 0.666,0 1.276,-0.0547 1.828,-0.1641 0.552,-0.1093 1.026,-0.3619 1.422,-0.7578 0.401,-0.401 0.653,-0.875 0.758,-1.4218 0.104,-0.5469 0.156,-1.1563 0.156,-1.8282 v -2.6406 c 0,-0.6667 -0.052,-1.2734 -0.156,-1.8203 -0.105,-0.5469 -0.357,-1.0208 -0.758,-1.4219 -0.401,-0.3958 -0.878,-0.6484 -1.43,-0.7578 -0.547,-0.1094 -1.154,-0.1641 -1.82,-0.1641 h -12.492 c -0.657,0 -1.261,0.0547 -1.813,0.1641 -0.547,0.1094 -1.021,0.3646 -1.422,0.7656 -0.396,0.3959 -0.648,0.8672 -0.758,1.4141 -0.104,0.5469 -0.156,1.1484 -0.156,1.8047 v 2.6562 c 0,0.6719 0.052,1.2813 0.156,1.8282 0.105,0.5468 0.357,1.0208 0.758,1.4218 0.401,0.3959 0.875,0.6485 1.422,0.7578 0.552,0.1094 1.162,0.1641 1.828,0.1641 z m -0.211,-1.2578 c -0.401,0 -0.797,-0.0391 -1.187,-0.1172 -0.386,-0.0781 -0.698,-0.2344 -0.938,-0.4687 -0.234,-0.2344 -0.388,-0.5443 -0.461,-0.9297 -0.073,-0.3854 -0.109,-0.7787 -0.109,-1.1797 v -3.0469 c 0,-0.4114 0.036,-0.8099 0.109,-1.1953 0.073,-0.3906 0.227,-0.7057 0.461,-0.9453 0.235,-0.2344 0.547,-0.388 0.938,-0.461 0.396,-0.0781 0.799,-0.1171 1.211,-0.1171 h 12.875 c 0.401,0 0.794,0.039 1.179,0.1171 0.391,0.073 0.706,0.2292 0.946,0.4688 0.234,0.2344 0.388,0.5443 0.461,0.9297 0.073,0.3854 0.109,0.7786 0.109,1.1797 v 3.0703 c 0,0.401 -0.036,0.7943 -0.109,1.1797 -0.073,0.3854 -0.227,0.6953 -0.461,0.9297 -0.24,0.2395 -0.555,0.3984 -0.946,0.4765 -0.385,0.0729 -0.778,0.1094 -1.179,0.1094 z m 17.914,-2.2109 c 0.209,-0.0157 0.425,-0.1068 0.649,-0.2735 0.224,-0.1719 0.414,-0.4062 0.57,-0.7031 0.156,-0.2969 0.234,-0.6458 0.234,-1.0469 0,-0.3958 -0.078,-0.7422 -0.234,-1.039 -0.156,-0.2969 -0.346,-0.5313 -0.57,-0.7032 -0.224,-0.1718 -0.44,-0.263 -0.649,-0.2734 z m -18.226,1.2187 h 13.531 c 0.271,0 0.49,-0.0208 0.656,-0.0625 0.167,-0.0417 0.31,-0.1198 0.43,-0.2344 0.115,-0.1145 0.193,-0.2552 0.234,-0.4218 0.047,-0.1719 0.071,-0.3933 0.071,-0.6641 v -3.7109 c 0,-0.2709 -0.024,-0.4896 -0.071,-0.6563 -0.041,-0.1719 -0.119,-0.3151 -0.234,-0.4297 -0.12,-0.1198 -0.263,-0.1979 -0.43,-0.2344 -0.166,-0.0416 -0.385,-0.0625 -0.656,-0.0625 h -13.531 c -0.276,0 -0.498,0.0209 -0.664,0.0625 -0.167,0.0365 -0.308,0.1146 -0.422,0.2344 -0.115,0.1146 -0.195,0.2578 -0.242,0.4297 -0.042,0.1667 -0.063,0.3854 -0.063,0.6563 v 3.7109 c 0,0.2708 0.021,0.4922 0.063,0.6641 0.047,0.1666 0.127,0.3073 0.242,0.4218 0.12,0.1146 0.26,0.1927 0.422,0.2344 0.166,0.0417 0.388,0.0625 0.664,0.0625 z"
           fill="#ffffff"
           fill-opacity="0.9"
           id="path88" />
      </g>
      <g
         filter="url(#filter11_d_60_4622)"
         id="g94">
        <path
           d="m 868.336,97.0266 h 5.672 c 0.62,0 1.182,-0.1354 1.687,-0.4062 0.506,-0.2657 0.907,-0.6407 1.203,-1.125 0.303,-0.4792 0.454,-1.0391 0.454,-1.6797 0,-0.6407 -0.151,-1.2005 -0.454,-1.6797 -0.296,-0.4844 -0.697,-0.8594 -1.203,-1.125 -0.505,-0.2708 -1.067,-0.4063 -1.687,-0.4063 h -5.672 c -0.62,0 -1.182,0.1355 -1.688,0.4063 -0.505,0.2656 -0.908,0.6406 -1.21,1.125 -0.297,0.4792 -0.446,1.039 -0.446,1.6797 0,0.6406 0.149,1.2005 0.446,1.6797 0.302,0.4843 0.705,0.8593 1.21,1.125 0.506,0.2708 1.068,0.4062 1.688,0.4062 z m 5.875,-1.1797 c -0.375,-0.0052 -0.716,-0.0989 -1.023,-0.2812 -0.308,-0.1823 -0.553,-0.4271 -0.735,-0.7344 -0.177,-0.3073 -0.265,-0.6484 -0.265,-1.0234 0,-0.3698 0.088,-0.7084 0.265,-1.0157 0.182,-0.3073 0.427,-0.552 0.735,-0.7343 0.307,-0.1823 0.648,-0.2735 1.023,-0.2735 0.375,0 0.716,0.0912 1.023,0.2735 0.313,0.1823 0.56,0.427 0.743,0.7343 0.182,0.3021 0.27,0.6381 0.265,1.0078 0,0.375 -0.094,0.7188 -0.281,1.0313 -0.182,0.3125 -0.427,0.5599 -0.734,0.7422 -0.303,0.1823 -0.641,0.2734 -1.016,0.2734 z m -5.555,-6.4453 h 5.039 c 0.667,0 1.276,-0.1484 1.828,-0.4453 0.558,-0.2969 1,-0.7135 1.329,-1.25 0.333,-0.5365 0.5,-1.1589 0.5,-1.8672 0,-0.7083 -0.167,-1.3307 -0.5,-1.8672 -0.329,-0.5364 -0.771,-0.9531 -1.329,-1.25 -0.552,-0.2969 -1.161,-0.4453 -1.828,-0.4453 h -5.039 c -0.672,0 -1.286,0.1484 -1.844,0.4453 -0.552,0.2969 -0.994,0.7136 -1.328,1.25 -0.328,0.5365 -0.492,1.1589 -0.492,1.8672 0,0.7083 0.164,1.3307 0.492,1.8672 0.334,0.5365 0.776,0.9531 1.328,1.25 0.558,0.2969 1.172,0.4453 1.844,0.4453 z m 0,-1.1797 c -0.437,0 -0.846,-0.0989 -1.226,-0.2969 -0.375,-0.2031 -0.68,-0.4817 -0.914,-0.8359 -0.23,-0.3594 -0.344,-0.776 -0.344,-1.25 0,-0.4739 0.114,-0.888 0.344,-1.2422 0.234,-0.3594 0.539,-0.638 0.914,-0.8359 0.38,-0.2031 0.789,-0.3047 1.226,-0.3047 h 5.039 c 0.433,0 0.836,0.1016 1.211,0.3047 0.38,0.1979 0.685,0.4765 0.914,0.8359 0.235,0.3542 0.352,0.7683 0.352,1.2422 0,0.474 -0.117,0.8906 -0.352,1.25 -0.229,0.3542 -0.534,0.6328 -0.914,0.8359 -0.375,0.198 -0.778,0.2969 -1.211,0.2969 z m 0,-0.5312 c 0.344,0.0052 0.654,-0.0755 0.93,-0.2422 0.281,-0.1719 0.505,-0.3985 0.672,-0.6797 0.172,-0.2865 0.258,-0.6016 0.258,-0.9453 0.005,-0.3438 -0.076,-0.6537 -0.243,-0.9297 -0.166,-0.2813 -0.393,-0.5026 -0.679,-0.6641 -0.282,-0.1666 -0.594,-0.25 -0.938,-0.25 -0.344,0 -0.656,0.0834 -0.937,0.25 -0.281,0.1667 -0.505,0.3907 -0.672,0.6719 -0.162,0.2813 -0.242,0.5912 -0.242,0.9297 0,0.3437 0.08,0.6562 0.242,0.9375 0.167,0.2812 0.391,0.5052 0.672,0.6719 0.281,0.1666 0.593,0.25 0.937,0.25 z"
           fill="#ffffff"
           fill-opacity="0.9"
           id="path92" />
      </g>
      <g
         filter="url(#filter12_d_60_4622)"
         id="g98">
        <path
           d="m 903.805,92.8235 c 0.646,0 1.252,-0.1224 1.82,-0.3672 0.568,-0.2448 1.068,-0.5833 1.5,-1.0156 0.432,-0.4375 0.771,-0.9401 1.016,-1.5078 0.25,-0.5677 0.375,-1.1745 0.375,-1.8204 0,-0.6458 -0.125,-1.2526 -0.375,-1.8203 -0.245,-0.5677 -0.584,-1.0677 -1.016,-1.5 -0.432,-0.4323 -0.932,-0.7708 -1.5,-1.0156 -0.568,-0.25 -1.174,-0.375 -1.82,-0.375 -0.646,0 -1.253,0.125 -1.821,0.375 -0.567,0.2448 -1.07,0.5833 -1.507,1.0156 -0.433,0.4323 -0.771,0.9323 -1.016,1.5 -0.245,0.5677 -0.367,1.1745 -0.367,1.8203 0,0.6459 0.122,1.2527 0.367,1.8204 0.245,0.5677 0.583,1.0703 1.016,1.5078 0.437,0.4323 0.94,0.7708 1.507,1.0156 0.568,0.2448 1.175,0.3672 1.821,0.3672 z m 0,1.2969 c -0.828,0 -1.604,-0.1563 -2.328,-0.4688 -0.724,-0.3125 -1.362,-0.7448 -1.915,-1.2969 -0.552,-0.552 -0.984,-1.1901 -1.296,-1.914 -0.313,-0.724 -0.469,-1.5 -0.469,-2.3282 0,-0.8281 0.156,-1.6041 0.469,-2.3281 0.312,-0.7291 0.744,-1.3672 1.296,-1.914 0.553,-0.5521 1.191,-0.9844 1.915,-1.2969 0.729,-0.3125 1.505,-0.4688 2.328,-0.4688 0.828,0 1.604,0.1563 2.328,0.4688 0.724,0.3125 1.362,0.7448 1.914,1.2969 0.552,0.552 0.984,1.1901 1.297,1.914 0.312,0.724 0.468,1.5 0.468,2.3281 0,0.8282 -0.156,1.6042 -0.468,2.3282 -0.313,0.7239 -0.745,1.362 -1.297,1.914 -0.552,0.5521 -1.19,0.9844 -1.914,1.2969 -0.724,0.3125 -1.5,0.4688 -2.328,0.4688 z m 7.836,2.8359 c -0.12,0 -0.235,-0.0208 -0.344,-0.0625 -0.109,-0.0417 -0.208,-0.1068 -0.297,-0.1953 l -4.148,-4.1485 1.281,-1.2421 4.125,4.1328 c 0.088,0.0833 0.151,0.1797 0.187,0.289 0.042,0.1094 0.063,0.2214 0.063,0.336 0,0.1666 -0.039,0.3151 -0.117,0.4453 -0.073,0.1354 -0.175,0.2422 -0.305,0.3203 -0.13,0.0833 -0.279,0.125 -0.445,0.125 z"
           fill="#ffffff"
           fill-opacity="0.9"
           id="path96" />
      </g>
      <g
         filter="url(#filter13_d_60_4622)"
         id="g102">
        <path
           d="m 939.648,96.7922 c 0.084,0 0.167,-0.026 0.25,-0.0781 0.089,-0.0521 0.206,-0.1484 0.352,-0.2891 l 1.828,-1.7578 c 0.063,-0.0573 0.096,-0.1224 0.102,-0.1953 0.01,-0.0781 -0.011,-0.151 -0.063,-0.2187 -0.245,-0.3177 -0.586,-0.5938 -1.023,-0.8282 -0.433,-0.2343 -0.914,-0.3515 -1.446,-0.3515 -0.541,0 -1.033,0.1224 -1.476,0.3672 -0.438,0.2448 -0.779,0.5312 -1.024,0.8593 -0.036,0.0573 -0.049,0.1198 -0.039,0.1875 0.016,0.0625 0.055,0.1224 0.118,0.1797 l 1.828,1.7578 c 0.14,0.1407 0.255,0.237 0.343,0.2891 0.089,0.0521 0.172,0.0781 0.25,0.0781 z m -4.39,-4.1015 c 0.078,0.0781 0.164,0.1146 0.258,0.1093 0.093,-0.0052 0.179,-0.0494 0.257,-0.1328 0.448,-0.5052 1.019,-0.9192 1.711,-1.2422 0.693,-0.3229 1.414,-0.4817 2.164,-0.4765 0.761,-0.0052 1.487,0.1588 2.18,0.4922 0.693,0.3281 1.268,0.7448 1.727,1.25 0.073,0.0781 0.153,0.1172 0.242,0.1172 0.088,-0.0052 0.169,-0.0469 0.242,-0.125 l 1.164,-1.1485 c 0.063,-0.0625 0.096,-0.1302 0.102,-0.2031 0.005,-0.0781 -0.019,-0.151 -0.071,-0.2188 -0.38,-0.4635 -0.856,-0.8776 -1.429,-1.2421 -0.573,-0.3698 -1.214,-0.6589 -1.922,-0.8672 -0.709,-0.2136 -1.453,-0.3203 -2.235,-0.3203 -0.781,0 -1.526,0.1067 -2.234,0.3203 -0.703,0.2083 -1.341,0.4974 -1.914,0.8672 -0.573,0.3645 -1.049,0.7786 -1.43,1.2421 -0.057,0.0678 -0.083,0.1381 -0.078,0.211 0.005,0.0729 0.039,0.1432 0.102,0.2109 z m -3.125,-3.1328 c 0.073,0.0781 0.156,0.1171 0.25,0.1171 0.099,-0.0052 0.182,-0.0468 0.25,-0.125 0.927,-0.9791 1.987,-1.7213 3.179,-2.2265 1.193,-0.5104 2.472,-0.7656 3.836,-0.7656 1.37,0 2.651,0.2552 3.844,0.7656 1.198,0.5104 2.258,1.2552 3.18,2.2344 0.068,0.0677 0.148,0.1015 0.242,0.1015 0.094,0 0.175,-0.039 0.242,-0.1172 l 1.032,-1.039 c 0.067,-0.0625 0.101,-0.1328 0.101,-0.211 0.005,-0.0833 -0.018,-0.1562 -0.07,-0.2187 -0.589,-0.724 -1.331,-1.3698 -2.227,-1.9375 -0.896,-0.5729 -1.888,-1.0208 -2.976,-1.3438 -1.084,-0.3281 -2.206,-0.4922 -3.368,-0.4922 -1.161,0 -2.286,0.1641 -3.375,0.4922 -1.088,0.323 -2.08,0.7709 -2.976,1.3438 -0.891,0.5677 -1.63,1.2135 -2.219,1.9375 -0.052,0.0625 -0.078,0.1354 -0.078,0.2187 0.005,0.0782 0.039,0.1485 0.102,0.211 z"
           fill="#ffffff"
           fill-opacity="0.9"
           id="path100" />
      </g>
      <g
         filter="url(#filter15_d_60_4622)"
         id="g110" />
    </g>
  </g>
  <path
     fill-rule="evenodd"
     clip-rule="evenodd"
     d="M 97.7,27.8798 C 97.7,12.5094 109.896,0 125,0 h 823 c 15.1,0 27.3,12.5094 27.3,27.8798 V 591.3 c 0,4.032 -3.27,7.3 -7.3,7.3 H 105 c -4.031,0 -7.3,-3.268 -7.3,-7.3 z M 125,2.6 c -13.614,0 -24.7,11.291 -24.7,25.2798 V 591.3 c 0,2.596 2.104,4.7 4.7,4.7 h 863 c 2.6,0 4.7,-2.104 4.7,-4.7 V 27.8798 C 972.7,13.891 961.61,2.6 948,2.6 Z"
     fill="#6a6b6f"
     id="path116" />
  <path
     d="m 915.99,612 c 10.88,0 80.01,17 52.65,17 H 104.36 c -27.364,0 41.766,-17 52.647,-17 z"
     fill="url(#paint0_linear_60_4622)"
     id="path118"
     style="fill:url(#paint0_linear_60_4622)" />
  <path
     d="m 629,602.3 v -5.5 H 445 v 5.5 c 0.833,1.167 4.5,3.5 12.5,3.5 h 159 c 8,0 11.667,-2.333 12.5,-3.5 z"
     fill="url(#paint1_linear_60_4622)"
     id="path120"
     style="fill:url(#paint1_linear_60_4622)" />
  <path
     d="M 445,596.8 H 0 v 6.5 h 446.121 c -0.553,-0.368 -0.92,-0.718 -1.121,-1 z"
     fill="url(#paint2_linear_60_4622)"
     id="path122"
     style="fill:url(#paint2_linear_60_4622)" />
  <path
     d="m 629,596.8 v 5.5 c -0.201,0.282 -0.568,0.632 -1.12,1 H 1074 v -6.5 z"
     fill="url(#paint3_linear_60_4622)"
     id="path124"
     style="fill:url(#paint3_linear_60_4622)" />
  <path
     d="m 445.465,602.8 c 1.382,1.228 5.063,3 12.035,3 h 159 c 6.972,0 10.653,-1.772 12.035,-3 H 1074 c -9.17,6.333 -41.8,18 -99,18 H 99 c -57.2,0 -89.833,-11.667 -99,-18 z"
     fill="url(#paint4_linear_60_4622)"
     id="path126"
     style="fill:url(#paint4_linear_60_4622)" />
  <path
     fill-rule="evenodd"
     clip-rule="evenodd"
     d="M 973,575.3 H 100 v 16 c 0,2.761 2.239,5 5,5 h 863 c 2.76,0 5,-2.239 5,-5 z"
     fill="#909092"
     id="path128" />
  <defs
     id="defs419">
    <filter
       id="filter0_b_60_4622"
       x="249"
       y="37"
       width="941"
       height="154"
       filterUnits="userSpaceOnUse"
       color-interpolation-filters="sRGB">
      <feFlood
         flood-opacity="0"
         result="BackgroundImageFix"
         id="feFlood130" />
      <feGaussianBlur
         in="BackgroundImageFix"
         stdDeviation="32.5"
         id="feGaussianBlur132" />
      <feComposite
         in2="SourceAlpha"
         operator="in"
         result="effect1_backgroundBlur_60_4622"
         id="feComposite134" />
      <feBlend
         mode="normal"
         in="SourceGraphic"
         in2="effect1_backgroundBlur_60_4622"
         result="shape"
         id="feBlend136" />
    </filter>
    <filter
       id="filter1_b_60_4622"
       x="248"
       y="13.3"
       width="941"
       height="154"
       filterUnits="userSpaceOnUse"
       color-interpolation-filters="sRGB">
      <feFlood
         flood-opacity="0"
         result="BackgroundImageFix"
         id="feFlood139" />
      <feGaussianBlur
         in="BackgroundImageFix"
         stdDeviation="32.5"
         id="feGaussianBlur141" />
      <feComposite
         in2="SourceAlpha"
         operator="in"
         result="effect1_backgroundBlur_60_4622"
         id="feComposite143" />
      <feBlend
         mode="normal"
         in="SourceGraphic"
         in2="effect1_backgroundBlur_60_4622"
         result="shape"
         id="feBlend145" />
    </filter>
    <filter
       id="filter2_d_60_4622"
       x="335"
       y="80.300003"
       width="21.0166"
       height="24"
       filterUnits="userSpaceOnUse"
       color-interpolation-filters="sRGB">
      <feFlood
         flood-opacity="0"
         result="BackgroundImageFix"
         id="feFlood148" />
      <feColorMatrix
         in="SourceAlpha"
         type="matrix"
         values="0 0 0 0 0 0 0 0 0 0 0 0 0 0 0 0 0 0 127 0"
         result="hardAlpha"
         id="feColorMatrix150" />
      <feOffset
         dy="2"
         id="feOffset152" />
      <feGaussianBlur
         stdDeviation="2"
         id="feGaussianBlur154" />
      <feColorMatrix
         type="matrix"
         values="0 0 0 0 0 0 0 0 0 0 0 0 0 0 0 0 0 0 0.15 0"
         id="feColorMatrix156" />
      <feBlend
         mode="normal"
         in2="BackgroundImageFix"
         result="effect1_dropShadow_60_4622"
         id="feBlend158" />
      <feBlend
         mode="normal"
         in="SourceGraphic"
         in2="effect1_dropShadow_60_4622"
         result="shape"
         id="feBlend160" />
    </filter>
    <filter
       id="filter3_d_60_4622"
       x="373.21301"
       y="82.396698"
       width="49.535198"
       height="19.060499"
       filterUnits="userSpaceOnUse"
       color-interpolation-filters="sRGB">
      <feFlood
         flood-opacity="0"
         result="BackgroundImageFix"
         id="feFlood163" />
      <feColorMatrix
         in="SourceAlpha"
         type="matrix"
         values="0 0 0 0 0 0 0 0 0 0 0 0 0 0 0 0 0 0 127 0"
         result="hardAlpha"
         id="feColorMatrix165" />
      <feOffset
         dy="2"
         id="feOffset167" />
      <feGaussianBlur
         stdDeviation="2"
         id="feGaussianBlur169" />
      <feColorMatrix
         type="matrix"
         values="0 0 0 0 0 0 0 0 0 0 0 0 0 0 0 0 0 0 0.15 0"
         id="feColorMatrix171" />
      <feBlend
         mode="normal"
         in2="BackgroundImageFix"
         result="effect1_dropShadow_60_4622"
         id="feBlend173" />
      <feBlend
         mode="normal"
         in="SourceGraphic"
         in2="effect1_dropShadow_60_4622"
         result="shape"
         id="feBlend175" />
    </filter>
    <filter
       id="filter4_d_60_4622"
       x="435.254"
       y="82.197502"
       width="28.7363"
       height="18.746099"
       filterUnits="userSpaceOnUse"
       color-interpolation-filters="sRGB">
      <feFlood
         flood-opacity="0"
         result="BackgroundImageFix"
         id="feFlood178" />
      <feColorMatrix
         in="SourceAlpha"
         type="matrix"
         values="0 0 0 0 0 0 0 0 0 0 0 0 0 0 0 0 0 0 127 0"
         result="hardAlpha"
         id="feColorMatrix180" />
      <feOffset
         dy="2"
         id="feOffset182" />
      <feGaussianBlur
         stdDeviation="2"
         id="feGaussianBlur184" />
      <feColorMatrix
         type="matrix"
         values="0 0 0 0 0 0 0 0 0 0 0 0 0 0 0 0 0 0 0.15 0"
         id="feColorMatrix186" />
      <feBlend
         mode="normal"
         in2="BackgroundImageFix"
         result="effect1_dropShadow_60_4622"
         id="feBlend188" />
      <feBlend
         mode="normal"
         in="SourceGraphic"
         in2="effect1_dropShadow_60_4622"
         result="shape"
         id="feBlend190" />
    </filter>
    <filter
       id="filter5_d_60_4622"
       x="476.254"
       y="82.197502"
       width="31.313499"
       height="18.725599"
       filterUnits="userSpaceOnUse"
       color-interpolation-filters="sRGB">
      <feFlood
         flood-opacity="0"
         result="BackgroundImageFix"
         id="feFlood193" />
      <feColorMatrix
         in="SourceAlpha"
         type="matrix"
         values="0 0 0 0 0 0 0 0 0 0 0 0 0 0 0 0 0 0 127 0"
         result="hardAlpha"
         id="feColorMatrix195" />
      <feOffset
         dy="2"
         id="feOffset197" />
      <feGaussianBlur
         stdDeviation="2"
         id="feGaussianBlur199" />
      <feColorMatrix
         type="matrix"
         values="0 0 0 0 0 0 0 0 0 0 0 0 0 0 0 0 0 0 0.15 0"
         id="feColorMatrix201" />
      <feBlend
         mode="normal"
         in2="BackgroundImageFix"
         result="effect1_dropShadow_60_4622"
         id="feBlend203" />
      <feBlend
         mode="normal"
         in="SourceGraphic"
         in2="effect1_dropShadow_60_4622"
         result="shape"
         id="feBlend205" />
    </filter>
    <filter
       id="filter6_d_60_4622"
       x="519.495"
       y="82.197502"
       width="38.6689"
       height="18.746099"
       filterUnits="userSpaceOnUse"
       color-interpolation-filters="sRGB">
      <feFlood
         flood-opacity="0"
         result="BackgroundImageFix"
         id="feFlood208" />
      <feColorMatrix
         in="SourceAlpha"
         type="matrix"
         values="0 0 0 0 0 0 0 0 0 0 0 0 0 0 0 0 0 0 127 0"
         result="hardAlpha"
         id="feColorMatrix210" />
      <feOffset
         dy="2"
         id="feOffset212" />
      <feGaussianBlur
         stdDeviation="2"
         id="feGaussianBlur214" />
      <feColorMatrix
         type="matrix"
         values="0 0 0 0 0 0 0 0 0 0 0 0 0 0 0 0 0 0 0.15 0"
         id="feColorMatrix216" />
      <feBlend
         mode="normal"
         in2="BackgroundImageFix"
         result="effect1_dropShadow_60_4622"
         id="feBlend218" />
      <feBlend
         mode="normal"
         in="SourceGraphic"
         in2="effect1_dropShadow_60_4622"
         result="shape"
         id="feBlend220" />
    </filter>
    <filter
       id="filter7_d_60_4622"
       x="569.85101"
       y="82.696503"
       width="25.061001"
       height="18.3428"
       filterUnits="userSpaceOnUse"
       color-interpolation-filters="sRGB">
      <feFlood
         flood-opacity="0"
         result="BackgroundImageFix"
         id="feFlood223" />
      <feColorMatrix
         in="SourceAlpha"
         type="matrix"
         values="0 0 0 0 0 0 0 0 0 0 0 0 0 0 0 0 0 0 127 0"
         result="hardAlpha"
         id="feColorMatrix225" />
      <feOffset
         dy="2"
         id="feOffset227" />
      <feGaussianBlur
         stdDeviation="2"
         id="feGaussianBlur229" />
      <feColorMatrix
         type="matrix"
         values="0 0 0 0 0 0 0 0 0 0 0 0 0 0 0 0 0 0 0.15 0"
         id="feColorMatrix231" />
      <feBlend
         mode="normal"
         in2="BackgroundImageFix"
         result="effect1_dropShadow_60_4622"
         id="feBlend233" />
      <feBlend
         mode="normal"
         in="SourceGraphic"
         in2="effect1_dropShadow_60_4622"
         result="shape"
         id="feBlend235" />
    </filter>
    <filter
       id="filter8_d_60_4622"
       x="606.625"
       y="82.197502"
       width="59.153301"
       height="18.746099"
       filterUnits="userSpaceOnUse"
       color-interpolation-filters="sRGB">
      <feFlood
         flood-opacity="0"
         result="BackgroundImageFix"
         id="feFlood238" />
      <feColorMatrix
         in="SourceAlpha"
         type="matrix"
         values="0 0 0 0 0 0 0 0 0 0 0 0 0 0 0 0 0 0 127 0"
         result="hardAlpha"
         id="feColorMatrix240" />
      <feOffset
         dy="2"
         id="feOffset242" />
      <feGaussianBlur
         stdDeviation="2"
         id="feGaussianBlur244" />
      <feColorMatrix
         type="matrix"
         values="0 0 0 0 0 0 0 0 0 0 0 0 0 0 0 0 0 0 0.15 0"
         id="feColorMatrix246" />
      <feBlend
         mode="normal"
         in2="BackgroundImageFix"
         result="effect1_dropShadow_60_4622"
         id="feBlend248" />
      <feBlend
         mode="normal"
         in="SourceGraphic"
         in2="effect1_dropShadow_60_4622"
         result="shape"
         id="feBlend250" />
    </filter>
    <filter
       id="filter9_d_60_4622"
       x="678.25403"
       y="82.464104"
       width="36.235401"
       height="20.810499"
       filterUnits="userSpaceOnUse"
       color-interpolation-filters="sRGB">
      <feFlood
         flood-opacity="0"
         result="BackgroundImageFix"
         id="feFlood253" />
      <feColorMatrix
         in="SourceAlpha"
         type="matrix"
         values="0 0 0 0 0 0 0 0 0 0 0 0 0 0 0 0 0 0 127 0"
         result="hardAlpha"
         id="feColorMatrix255" />
      <feOffset
         dy="2"
         id="feOffset257" />
      <feGaussianBlur
         stdDeviation="2"
         id="feGaussianBlur259" />
      <feColorMatrix
         type="matrix"
         values="0 0 0 0 0 0 0 0 0 0 0 0 0 0 0 0 0 0 0.15 0"
         id="feColorMatrix261" />
      <feBlend
         mode="normal"
         in2="BackgroundImageFix"
         result="effect1_dropShadow_60_4622"
         id="feBlend263" />
      <feBlend
         mode="normal"
         in="SourceGraphic"
         in2="effect1_dropShadow_60_4622"
         result="shape"
         id="feBlend265" />
    </filter>
    <filter
       id="filter10_d_60_4622"
       x="821.992"
       y="82.175003"
       width="31.320299"
       height="18.976601"
       filterUnits="userSpaceOnUse"
       color-interpolation-filters="sRGB">
      <feFlood
         flood-opacity="0"
         result="BackgroundImageFix"
         id="feFlood268" />
      <feColorMatrix
         in="SourceAlpha"
         type="matrix"
         values="0 0 0 0 0 0 0 0 0 0 0 0 0 0 0 0 0 0 127 0"
         result="hardAlpha"
         id="feColorMatrix270" />
      <feOffset
         dy="2"
         id="feOffset272" />
      <feGaussianBlur
         stdDeviation="2"
         id="feGaussianBlur274" />
      <feColorMatrix
         type="matrix"
         values="0 0 0 0 0 0 0 0 0 0 0 0 0 0 0 0 0 0 0.15 0"
         id="feColorMatrix276" />
      <feBlend
         mode="normal"
         in2="BackgroundImageFix"
         result="effect1_dropShadow_60_4622"
         id="feBlend278" />
      <feBlend
         mode="normal"
         in="SourceGraphic"
         in2="effect1_dropShadow_60_4622"
         result="shape"
         id="feBlend280" />
    </filter>
    <filter
       id="filter11_d_60_4622"
       x="860.992"
       y="80.276604"
       width="20.3594"
       height="22.75"
       filterUnits="userSpaceOnUse"
       color-interpolation-filters="sRGB">
      <feFlood
         flood-opacity="0"
         result="BackgroundImageFix"
         id="feFlood283" />
      <feColorMatrix
         in="SourceAlpha"
         type="matrix"
         values="0 0 0 0 0 0 0 0 0 0 0 0 0 0 0 0 0 0 127 0"
         result="hardAlpha"
         id="feColorMatrix285" />
      <feOffset
         dy="2"
         id="feOffset287" />
      <feGaussianBlur
         stdDeviation="2"
         id="feGaussianBlur289" />
      <feColorMatrix
         type="matrix"
         values="0 0 0 0 0 0 0 0 0 0 0 0 0 0 0 0 0 0 0.15 0"
         id="feColorMatrix291" />
      <feBlend
         mode="normal"
         in2="BackgroundImageFix"
         result="effect1_dropShadow_60_4622"
         id="feBlend293" />
      <feBlend
         mode="normal"
         in="SourceGraphic"
         in2="effect1_dropShadow_60_4622"
         result="shape"
         id="feBlend295" />
    </filter>
    <filter
       id="filter12_d_60_4622"
       x="893.797"
       y="80.104698"
       width="22.710899"
       height="22.851601"
       filterUnits="userSpaceOnUse"
       color-interpolation-filters="sRGB">
      <feFlood
         flood-opacity="0"
         result="BackgroundImageFix"
         id="feFlood298" />
      <feColorMatrix
         in="SourceAlpha"
         type="matrix"
         values="0 0 0 0 0 0 0 0 0 0 0 0 0 0 0 0 0 0 127 0"
         result="hardAlpha"
         id="feColorMatrix300" />
      <feOffset
         dy="2"
         id="feOffset302" />
      <feGaussianBlur
         stdDeviation="2"
         id="feGaussianBlur304" />
      <feColorMatrix
         type="matrix"
         values="0 0 0 0 0 0 0 0 0 0 0 0 0 0 0 0 0 0 0.15 0"
         id="feColorMatrix306" />
      <feBlend
         mode="normal"
         in2="BackgroundImageFix"
         result="effect1_dropShadow_60_4622"
         id="feBlend308" />
      <feBlend
         mode="normal"
         in="SourceGraphic"
         in2="effect1_dropShadow_60_4622"
         result="shape"
         id="feBlend310" />
    </filter>
    <filter
       id="filter13_d_60_4622"
       x="927"
       y="82.300003"
       width="25.290001"
       height="20.492201"
       filterUnits="userSpaceOnUse"
       color-interpolation-filters="sRGB">
      <feFlood
         flood-opacity="0"
         result="BackgroundImageFix"
         id="feFlood313" />
      <feColorMatrix
         in="SourceAlpha"
         type="matrix"
         values="0 0 0 0 0 0 0 0 0 0 0 0 0 0 0 0 0 0 127 0"
         result="hardAlpha"
         id="feColorMatrix315" />
      <feOffset
         dy="2"
         id="feOffset317" />
      <feGaussianBlur
         stdDeviation="2"
         id="feGaussianBlur319" />
      <feColorMatrix
         type="matrix"
         values="0 0 0 0 0 0 0 0 0 0 0 0 0 0 0 0 0 0 0.15 0"
         id="feColorMatrix321" />
      <feBlend
         mode="normal"
         in2="BackgroundImageFix"
         result="effect1_dropShadow_60_4622"
         id="feBlend323" />
      <feBlend
         mode="normal"
         in="SourceGraphic"
         in2="effect1_dropShadow_60_4622"
         result="shape"
         id="feBlend325" />
    </filter>
    <filter
       id="filter15_d_60_4622"
       x="1050.87"
       y="82.696503"
       width="59.111301"
       height="18.3428"
       filterUnits="userSpaceOnUse"
       color-interpolation-filters="sRGB">
      <feFlood
         flood-opacity="0"
         result="BackgroundImageFix"
         id="feFlood343" />
      <feColorMatrix
         in="SourceAlpha"
         type="matrix"
         values="0 0 0 0 0 0 0 0 0 0 0 0 0 0 0 0 0 0 127 0"
         result="hardAlpha"
         id="feColorMatrix345" />
      <feOffset
         dy="2"
         id="feOffset347" />
      <feGaussianBlur
         stdDeviation="2"
         id="feGaussianBlur349" />
      <feColorMatrix
         type="matrix"
         values="0 0 0 0 0 0 0 0 0 0 0 0 0 0 0 0 0 0 0.15 0"
         id="feColorMatrix351" />
      <feBlend
         mode="normal"
         in2="BackgroundImageFix"
         result="effect1_dropShadow_60_4622"
         id="feBlend353" />
      <feBlend
         mode="normal"
         in="SourceGraphic"
         in2="effect1_dropShadow_60_4622"
         result="shape"
         id="feBlend355" />
    </filter>
    <linearGradient
       id="paint0_linear_60_4622"
       x1="717.5"
       y1="661"
       x2="717.5"
       y2="644"
       gradientUnits="userSpaceOnUse"
       gradientTransform="translate(-181,-32)">
      <stop
         stop-color="#9B9EA0"
         stop-opacity="0"
         id="stop358" />
      <stop
         offset="1"
         stop-color="#1B1D1E"
         id="stop360" />
    </linearGradient>
    <linearGradient
       id="paint1_linear_60_4622"
       x1="626"
       y1="631.79999"
       x2="810"
       y2="631.79999"
       gradientUnits="userSpaceOnUse"
       gradientTransform="translate(-181,-32)">
      <stop
         stop-color="#2E2F34"
         id="stop363" />
      <stop
         offset="0.116817"
         stop-color="#5C5D62"
         id="stop365" />
      <stop
         offset="0.253445"
         stop-color="#7E7F84"
         id="stop367" />
      <stop
         offset="0.505951"
         stop-color="#7E7F84"
         id="stop369" />
      <stop
         offset="0.734504"
         stop-color="#7E7F84"
         id="stop371" />
      <stop
         offset="0.908586"
         stop-color="#57585D"
         id="stop373" />
      <stop
         offset="1"
         stop-color="#303136"
         id="stop375" />
    </linearGradient>
    <linearGradient
       id="paint2_linear_60_4622"
       x1="181"
       y1="632.30603"
       x2="1255"
       y2="632.302"
       gradientUnits="userSpaceOnUse"
       gradientTransform="translate(-181,-32)">
      <stop
         stop-color="#3E3F43"
         id="stop378" />
      <stop
         offset="0.0244084"
         stop-color="#8A8B8F"
         id="stop380" />
      <stop
         offset="0.979558"
         stop-color="#8A8B8F"
         id="stop382" />
      <stop
         offset="1"
         stop-color="#46474B"
         id="stop384" />
    </linearGradient>
    <linearGradient
       id="paint3_linear_60_4622"
       x1="181"
       y1="632.30603"
       x2="1255"
       y2="632.302"
       gradientUnits="userSpaceOnUse"
       gradientTransform="translate(-181,-32)">
      <stop
         stop-color="#3E3F43"
         id="stop387" />
      <stop
         offset="0.0244084"
         stop-color="#8A8B8F"
         id="stop389" />
      <stop
         offset="0.979558"
         stop-color="#8A8B8F"
         id="stop391" />
      <stop
         offset="1"
         stop-color="#46474B"
         id="stop393" />
    </linearGradient>
    <linearGradient
       id="paint4_linear_60_4622"
       x1="718"
       y1="635.29999"
       x2="718"
       y2="663.79999"
       gradientUnits="userSpaceOnUse"
       gradientTransform="translate(-181,-32)">
      <stop
         stop-color="#55565A"
         id="stop396" />
      <stop
         offset="1"
         id="stop398" />
    </linearGradient>
    <clipPath
       id="clip0_60_4622">
      <rect
         width="811"
         height="511"
         fill="#ffffff"
         transform="translate(313,78.3)"
         id="rect401"
         x="0"
         y="0" />
    </clipPath>
    <clipPath
       id="clip1_60_4622">
      <path
         d="m 314,112 c 0,-5.523 4.477,-10 10,-10 h 791 c 5.52,0 10,4.477 10,10 v 14 H 314 Z"
         fill="#ffffff"
         id="path404" />
    </clipPath>
    <clipPath
       id="clip2_60_4622">
      <rect
         x="314"
         y="102"
         width="811"
         height="24"
         fill="#ffffff"
         id="rect407" />
    </clipPath>
    <clipPath
       id="clip3_60_4622">
      <rect
         x="313"
         y="78.300003"
         width="811"
         height="24"
         fill="#ffffff"
         id="rect410" />
    </clipPath>
    <clipPath
       id="clip4_60_4622">
      <rect
         width="395.017"
         height="24"
         fill="#ffffff"
         transform="translate(325,78.3)"
         id="rect413"
         x="0"
         y="0" />
    </clipPath>
    <clipPath
       id="clip5_60_4622">
      <rect
         width="288"
         height="24"
         fill="#ffffff"
         transform="translate(824,78.3)"
         id="rect416"
         x="0"
         y="0" />
    </clipPath>
  </defs>
</svg>
